<svg width="226" height="226" viewBox="0 0 226 226" fill="none" xmlns="http://www.w3.org/2000/svg">
<path d="M183.625 218.938H42.375C22.9531 218.938 7.0625 203.047 7.0625 183.625V42.375C7.0625 22.9531 22.9531 7.0625 42.375 7.0625H183.625C203.047 7.0625 218.938 22.9531 218.938 42.375V183.625C218.938 203.047 203.047 218.938 183.625 218.938Z" fill="#A81818"/>
<path d="M109.641 94.8582L117.1 89.6937C118.248 88.8992 119.705 88.8992 120.808 89.6937L128.268 94.9023V65.5488H109.641V94.8582Z" fill="white"/>
<path d="M125.754 61.7967L106.067 41.5361H90.8828L108.627 61.7967H125.754Z" fill="white"/>
<path d="M179.214 61.7967L153.171 41.5361H111.281L130.968 61.7967H179.214Z" fill="white"/>
<path d="M34.7812 149.813L52.5258 165.616V64.3572L34.7812 44.5381V149.813Z" fill="white"/>
<path d="M85.8977 41.5361H37.0781L55.2199 61.7967H103.686L85.8977 41.5361Z" fill="white"/>
<path d="M162.786 127.61C147.116 127.61 134.359 140.367 134.359 156.037C134.359 171.707 147.116 184.463 162.786 184.463C178.456 184.463 191.213 171.707 191.213 156.037C191.213 140.367 178.5 127.61 162.786 127.61ZM178.809 162.923C181.325 165.439 181.325 169.544 178.809 172.06C177.529 173.34 175.896 173.958 174.262 173.958C172.585 173.958 170.952 173.34 169.716 172.06L162.83 165.174L155.944 172.06C153.428 174.576 149.323 174.576 146.807 172.06C145.615 170.868 144.909 169.235 144.909 167.513C144.909 165.792 145.615 164.159 146.807 162.967L153.693 156.081L146.807 149.195C144.291 146.679 144.291 142.574 146.807 140.058C149.323 137.542 153.428 137.542 155.944 140.058L162.83 146.944L169.716 140.058C170.908 138.866 172.541 138.16 174.262 138.16C175.984 138.16 177.617 138.866 178.809 140.058C181.325 142.574 181.325 146.679 178.809 149.195L171.923 156.081L178.809 162.923Z" fill="white"/>
<path d="M162.79 123.903C170.338 123.903 177.268 126.507 182.786 130.877V65.5049H132.024V95.7412C132.024 96.933 131.318 98.0365 130.258 98.6545C129.199 99.2283 127.875 99.14 126.859 98.4338L118.958 92.9162L111.057 98.4338C110.483 98.8311 109.865 99.0076 109.203 99.0076C108.673 99.0076 108.144 98.8752 107.658 98.6545C106.599 98.0807 105.893 96.9771 105.893 95.7412V65.5049H56.2344V167.867H132.863C131.406 164.203 130.611 160.187 130.611 155.993C130.655 138.293 145.089 123.903 162.79 123.903Z" fill="white"/>
<path d="M174.271 141.868C173.564 141.868 172.858 142.177 172.329 142.663L164.118 150.873C163.412 151.579 162.22 151.579 161.47 150.873L153.304 142.663C152.245 141.603 150.479 141.603 149.42 142.663C148.36 143.722 148.36 145.488 149.42 146.547L157.586 154.757C158.292 155.463 158.292 156.699 157.586 157.406L149.42 165.616C148.89 166.146 148.625 166.808 148.625 167.558C148.625 168.264 148.934 168.971 149.42 169.5C150.479 170.56 152.245 170.56 153.304 169.5L161.514 161.29C161.867 160.937 162.309 160.716 162.838 160.716C163.368 160.716 163.809 160.893 164.162 161.29L172.373 169.5C173.432 170.56 175.198 170.56 176.257 169.5C177.316 168.441 177.316 166.675 176.257 165.616L168.047 157.406C167.694 157.053 167.473 156.611 167.473 156.081C167.473 155.552 167.65 155.11 168.047 154.757L176.257 146.547C177.316 145.488 177.316 143.722 176.257 142.663C175.683 142.133 174.977 141.868 174.271 141.868Z" fill="white"/>
</svg>
