<svg width="16" height="18" viewBox="0 0 16 18" fill="none" xmlns="http://www.w3.org/2000/svg">
<path fill-rule="evenodd" clip-rule="evenodd" d="M0.5 4.83333C0.5 4.3731 0.873096 4 1.33333 4H14.6667C15.1269 4 15.5 4.3731 15.5 4.83333C15.5 5.29357 15.1269 5.66667 14.6667 5.66667H1.33333C0.873096 5.66667 0.5 5.29357 0.5 4.83333Z" fill="#64748B"/>
<path fill-rule="evenodd" clip-rule="evenodd" d="M6.3335 7.54163C6.67867 7.54163 6.9585 7.82145 6.9585 8.16663V13.1666C6.9585 13.5118 6.67867 13.7916 6.3335 13.7916C5.98832 13.7916 5.7085 13.5118 5.7085 13.1666V8.16663C5.7085 7.82145 5.98832 7.54163 6.3335 7.54163Z" fill="#64748B"/>
<path fill-rule="evenodd" clip-rule="evenodd" d="M9.6665 7.54163C10.0117 7.54163 10.2915 7.82145 10.2915 8.16663V13.1666C10.2915 13.5118 10.0117 13.7916 9.6665 13.7916C9.32133 13.7916 9.0415 13.5118 9.0415 13.1666V8.16663C9.0415 7.82145 9.32133 7.54163 9.6665 7.54163Z" fill="#64748B"/>
<path fill-rule="evenodd" clip-rule="evenodd" d="M2.11464 4.21045C2.45862 4.18178 2.76071 4.4374 2.78938 4.78138L3.62271 14.7814C3.62415 14.7986 3.62487 14.816 3.62487 14.8333C3.62487 15.1096 3.73462 15.3745 3.92997 15.5699C4.12532 15.7652 4.39027 15.875 4.66654 15.875H11.3332C11.6095 15.875 11.8744 15.7652 12.0698 15.5699C12.2651 15.3745 12.3749 15.1096 12.3749 14.8333C12.3749 14.816 12.3756 14.7986 12.377 14.7814L13.2104 4.78138C13.239 4.4374 13.5411 4.18178 13.8851 4.21045C14.2291 4.23911 14.4847 4.5412 14.456 4.88519L13.6247 14.8613C13.6174 15.459 13.3768 16.0306 12.9537 16.4537C12.5239 16.8835 11.941 17.125 11.3332 17.125H4.66654C4.05875 17.125 3.47586 16.8835 3.04609 16.4537C2.62293 16.0306 2.38235 15.459 2.37504 14.8613L1.5437 4.88519C1.51503 4.5412 1.77065 4.23911 2.11464 4.21045Z" fill="#64748B"/>
<path fill-rule="evenodd" clip-rule="evenodd" d="M6.33333 2.125C6.27808 2.125 6.22509 2.14695 6.18602 2.18602C6.14695 2.22509 6.125 2.27808 6.125 2.33333V4.83333C6.125 5.17851 5.84518 5.45833 5.5 5.45833C5.15482 5.45833 4.875 5.17851 4.875 4.83333V2.33333C4.875 1.94656 5.02865 1.57563 5.30214 1.30214C5.57563 1.02865 5.94656 0.875 6.33333 0.875H9.66667C10.0534 0.875 10.4244 1.02865 10.6979 1.30214C10.9714 1.57563 11.125 1.94656 11.125 2.33333V4.83333C11.125 5.17851 10.8452 5.45833 10.5 5.45833C10.1548 5.45833 9.875 5.17851 9.875 4.83333V2.33333C9.875 2.27808 9.85305 2.22509 9.81398 2.18602C9.77491 2.14695 9.72192 2.125 9.66667 2.125H6.33333Z" fill="#64748B"/>
</svg>
