<svg width="12" height="13" viewBox="0 0 12 13" fill="none" xmlns="http://www.w3.org/2000/svg">
<path d="M6 0.5C2.68652 0.5 0 3.18749 0 6.5C0 9.81444 2.68652 12.5 6 12.5C9.31348 12.5 12 9.81444 12 6.5C12 3.18749 9.31348 0.5 6 0.5Z" fill="white" fill-opacity="0.01"/>
<mask id="mask0_5620_33165" style="mask-type:luminance" maskUnits="userSpaceOnUse" x="0" y="0" width="12" height="13">
<path d="M6 0.5C2.68652 0.5 0 3.18749 0 6.5C0 9.81444 2.68652 12.5 6 12.5C9.31348 12.5 12 9.81444 12 6.5C12 3.18749 9.31348 0.5 6 0.5Z" fill="white"/>
</mask>
<g mask="url(#mask0_5620_33165)">
<rect y="0.5" width="12" height="12" fill="#307ADB"/>
<path fill-rule="evenodd" clip-rule="evenodd" d="M5.09693 4.64732C4.83991 4.3884 4.42228 4.38489 4.16094 4.63945C3.89606 4.89748 3.89254 5.32203 4.15311 5.58441L5.06924 6.5069L4.15385 7.42709C3.89342 7.68888 3.89808 8.1133 4.16419 8.36932C4.42422 8.61948 4.83684 8.6148 5.09113 8.35881L5.99988 7.44398L6.9037 8.35407C7.1602 8.61236 7.57677 8.61621 7.83801 8.36271C8.10351 8.10506 8.10749 7.6802 7.84685 7.41763L6.93678 6.50081L7.85523 5.57621C8.11204 5.31768 8.11045 4.89986 7.85169 4.64329C7.59339 4.38718 7.17649 4.38861 6.91995 4.64649L6.00704 5.56418L5.09693 4.64732Z" fill="white"/>
</g>
</svg>
