<svg width="141" height="79" viewBox="0 0 141 79" fill="none" xmlns="http://www.w3.org/2000/svg">
<path d="M11.968 42.856C11.968 44.6907 12.608 46.2053 13.888 47.4C15.168 48.5947 16.8107 49.192 18.816 49.192C20.864 49.192 22.464 48.6373 23.616 47.528C24.8107 46.376 25.408 44.968 25.408 43.304C25.408 40.6587 24.4693 38.8027 22.592 37.736C20.7573 36.6267 18.9013 36.072 17.024 36.072C15.7867 36.072 14.464 36.2427 13.056 36.584L9.728 32.36L22.336 21.032H3.456V12.2H33.6L33.664 22.376L24.64 30.248C27.584 30.888 29.9947 32.296 31.872 34.472C33.7493 36.648 34.688 39.4853 34.688 42.984C34.688 45.416 34.1973 47.592 33.216 49.512C32.2773 51.432 31.0187 52.968 29.44 54.12C27.904 55.2293 26.2187 56.0827 24.384 56.68C22.592 57.2347 20.736 57.512 18.816 57.512C14.336 57.512 10.496 56.0827 7.296 53.224C4.13867 50.3227 2.56 46.8667 2.56 42.856H11.968ZM45.2425 17.896C48.4852 13.7147 52.7945 11.624 58.1705 11.624C62.0958 11.624 65.5945 12.776 68.6665 15.08C71.7385 17.384 73.7652 20.5627 74.7465 24.616H65.2745C64.8052 23.2933 63.8878 22.184 62.5225 21.288C61.1572 20.392 59.6638 19.944 58.0425 19.944C55.2692 19.944 53.0932 21.1387 51.5145 23.528C49.9358 25.8747 49.1465 28.3707 49.1465 31.016V31.656C52.0052 28.5413 55.5465 26.984 59.7705 26.984C59.8558 26.984 59.9198 26.984 59.9625 26.984C64.3998 27.0267 67.9838 28.52 70.7145 31.464C73.4452 34.3653 74.8105 37.8213 74.8105 41.832C74.8105 46.184 73.3598 49.896 70.4585 52.968C67.5998 55.9973 63.6105 57.512 58.4905 57.512C53.0292 57.512 48.6345 55.528 45.3065 51.56C42.0212 47.592 40.3785 42.0027 40.3785 34.792C40.3785 27.7093 41.9998 22.0773 45.2425 17.896ZM50.4265 41.96C50.4265 44.008 51.1305 45.736 52.5385 47.144C53.9892 48.5093 55.7598 49.192 57.8505 49.192C59.9838 49.192 61.7545 48.5093 63.1625 47.144C64.6132 45.7787 65.3385 44.0507 65.3385 41.96C65.3385 39.8267 64.6132 38.0773 63.1625 36.712C61.7545 35.304 59.9838 34.6 57.8505 34.6C55.7598 34.6 53.9892 35.304 52.5385 36.712C51.1305 38.0773 50.4265 39.8267 50.4265 41.96ZM84.1665 17.768C87.4518 13.672 91.9318 11.624 97.6065 11.624C103.324 11.624 107.825 13.6933 111.111 17.832C114.396 21.928 116.039 27.5173 116.039 34.6C116.039 41.6827 114.396 47.272 111.111 51.368C107.825 55.464 103.324 57.512 97.6065 57.512C91.8038 57.512 87.2812 55.4853 84.0385 51.432C80.8385 47.3787 79.2385 41.7893 79.2385 34.664C79.2385 27.5387 80.8812 21.9067 84.1665 17.768ZM91.0145 44.84C92.6358 47.3147 94.8332 48.552 97.6065 48.552C100.465 48.552 102.705 47.2933 104.327 44.776C105.948 42.216 106.759 38.824 106.759 34.6C106.759 30.3333 105.927 26.9413 104.263 24.424C102.641 21.864 100.423 20.584 97.6065 20.584C94.7478 20.584 92.5078 21.864 90.8865 24.424C89.3078 26.984 88.5185 30.3973 88.5185 34.664C88.5185 38.9733 89.3505 42.3653 91.0145 44.84Z" fill="white"/>
<circle cx="132" cy="9" r="6" stroke="white" stroke-width="6"/>
</svg>
