<svg width="98" height="98" viewBox="0 0 98 98" fill="none" xmlns="http://www.w3.org/2000/svg">
<g clip-path="url(#clip0_1142_66)">
<path d="M94.8148 23.4506L82.5199 6.83959C81.0079 4.72578 79.0139 3.00276 76.7032 1.81331C74.3925 0.623869 71.8316 0.00226103 69.2327 7.19643e-06H28.7669C26.1806 -0.00242033 23.6308 0.609335 21.3271 1.78493C19.0235 2.96052 17.032 4.66634 15.5164 6.76201L3.00103 23.4914C0.963295 26.3648 -0.0890559 29.8209 0.00148289 33.3423C0.0920217 36.8638 1.32058 40.2612 3.50328 43.0261L39.4039 93.3654C40.548 94.8142 42.0063 95.9841 43.6685 96.787C45.3308 97.5898 47.1538 98.0046 48.9998 98C50.8775 97.9963 52.7293 97.5618 54.4127 96.73C56.0961 95.8982 57.5662 94.6913 58.7099 93.2021L94.3248 43.4222C96.6052 40.6169 97.8905 37.1342 97.9792 33.52C98.0678 29.9058 96.9549 26.3644 94.8148 23.4506ZM75.9171 11.6416L88.2406 28.2934C88.306 28.3833 88.3223 28.4894 88.3876 28.5833H68.4119L62.5809 8.16667H69.2327C70.5433 8.17074 71.8338 8.48828 72.9967 9.09279C74.1595 9.69729 75.1609 10.5712 75.9171 11.6416ZM48.9998 78.0652L37.9748 36.75H60.0248L48.9998 78.0652ZM38.0809 28.5833L43.9119 8.16667H54.0876L59.9186 28.5833H38.0809ZM22.1192 11.5844C22.8769 10.5284 23.8748 9.66778 25.0307 9.07351C26.1865 8.47925 27.4672 8.16842 28.7669 8.16667H35.4186L29.5876 28.5833H9.46494C9.52211 28.4935 9.53844 28.3833 9.60378 28.2975L22.1192 11.5844ZM9.99578 38.0771C9.70094 37.6606 9.44791 37.2161 9.24036 36.75H29.5304L41.7559 82.6058L9.99578 38.0771ZM56.2314 82.6467L68.4814 36.75H88.8409C88.5778 37.3595 88.2448 37.9364 87.8486 38.4691L56.2314 82.6467Z" fill="white"/>
</g>
<defs>
<clipPath id="clip0_1142_66">
<rect width="98" height="98" fill="white"/>
</clipPath>
</defs>
</svg>
