<svg width="98" height="98" viewBox="0 0 98 98" fill="none" xmlns="http://www.w3.org/2000/svg">
<g clip-path="url(#clip0_1142_55)">
<path d="M61.6216 65.3335C88.4491 65.1865 98 50.9765 98 38.7918C97.9974 35.5253 96.876 32.3583 94.8224 29.8181C92.7689 27.2779 89.9071 25.5178 86.7137 24.8309C87.269 23.2506 87.7508 21.801 88.0734 20.7026C88.7862 18.3137 88.9263 15.7904 88.4822 13.3372C88.0381 10.884 87.0223 8.56993 85.5173 6.58246C83.9999 4.53216 82.0212 2.86789 79.7412 1.72435C77.4613 0.580816 74.9441 -0.00986219 72.3934 0.000124559H25.6066C23.0559 -0.00986219 20.5387 0.580816 18.2588 1.72435C15.9788 2.86789 14.0001 4.53216 12.4827 6.58246C10.9777 8.56993 9.96193 10.884 9.51783 13.3372C9.07373 15.7904 9.21377 18.3137 9.92658 20.7026C10.2492 21.801 10.7432 23.2506 11.2863 24.8309C8.0929 25.5178 5.23113 27.2779 3.17756 29.8181C1.12399 32.3583 0.00255731 35.5253 0 38.7918C0 50.9765 9.55092 65.1865 36.3784 65.3335C36.6169 66.5731 36.7413 67.8319 36.75 69.0942V81.6668C36.8202 82.7575 36.657 83.8505 36.2714 84.8732C35.8858 85.8958 35.2866 86.8245 34.5138 87.5973C33.741 88.3701 32.8123 88.9693 31.7897 89.3549C30.7671 89.7405 29.674 89.9036 28.5833 89.8335H24.5C23.417 89.8335 22.3784 90.2637 21.6126 91.0294C20.8469 91.7952 20.4167 92.8338 20.4167 93.9168C20.4167 94.9998 20.8469 96.0384 21.6126 96.8042C22.3784 97.5699 23.417 98.0001 24.5 98.0001H73.5C74.583 98.0001 75.6216 97.5699 76.3874 96.8042C77.1531 96.0384 77.5833 94.9998 77.5833 93.9168C77.5833 92.8338 77.1531 91.7952 76.3874 91.0294C75.6216 90.2637 74.583 89.8335 73.5 89.8335H69.4493C68.3564 89.9071 67.2602 89.7467 66.2342 89.3628C65.2083 88.9789 64.276 88.3804 63.4999 87.6073C62.7237 86.8343 62.1215 85.9044 61.7335 84.88C61.3455 83.8555 61.1807 82.7601 61.25 81.6668V69.0901C61.2589 67.8292 61.3833 66.5717 61.6216 65.3335ZM83.7083 32.6668C85.3328 32.6668 86.8907 33.3121 88.0394 34.4608C89.188 35.6094 89.8333 37.1673 89.8333 38.7918C89.8333 47.0973 83.2633 55.9418 65.1863 57.0443C66.0905 55.8103 67.1346 54.6853 68.2978 53.6919C74.8067 47.8282 79.9943 40.6474 83.5164 32.626C83.5817 32.63 83.6389 32.6668 83.7083 32.6668ZM8.16667 38.7918C8.16667 37.1673 8.81198 35.6094 9.96064 34.4608C11.1093 33.3121 12.6672 32.6668 14.2917 32.6668C14.3611 32.6668 14.4183 32.63 14.4836 32.626C18.0057 40.6474 23.1933 47.8282 29.7022 53.6919C30.8654 54.6853 31.9095 55.8103 32.8137 57.0443C14.7368 55.9418 8.16667 47.0973 8.16667 38.7918ZM42.9281 89.8335C44.278 87.3259 44.9627 84.5142 44.9167 81.6668V69.0942C44.9309 64.9857 44.0502 60.9235 42.336 57.1897C40.6218 53.4559 38.1151 50.1402 34.9901 47.473C26.6867 39.5372 20.7255 29.471 17.7584 18.3751C17.4097 17.2039 17.3427 15.9669 17.5626 14.7649C17.7826 13.5629 18.2834 12.4298 19.0243 11.458C19.786 10.4311 20.7788 9.59805 21.9224 9.02627C23.0659 8.45449 24.3281 8.16005 25.6066 8.16679H72.3934C73.6733 8.16194 74.9364 8.45889 76.08 9.03356C77.2237 9.60823 78.2158 10.4444 78.9758 11.4743C79.7166 12.4461 80.2174 13.5792 80.4374 14.7812C80.6573 15.9833 80.5902 17.2203 80.2416 18.3915C77.2717 29.4814 71.3107 39.5417 63.0099 47.473C59.885 50.1394 57.3783 53.4544 55.6641 57.1875C53.9499 60.9206 53.0692 64.9823 53.0833 69.0901V81.6668C53.0373 84.5142 53.722 87.3259 55.0719 89.8335H42.9281Z" fill="white"/>
</g>
<defs>
<clipPath id="clip0_1142_55">
<rect width="98" height="98" fill="white"/>
</clipPath>
</defs>
</svg>
