<svg width="110" height="98" viewBox="0 0 110 98" fill="none" xmlns="http://www.w3.org/2000/svg">
<path d="M95.7209 19.6H22.7907C18.8753 19.6 15.1695 17.7772 12.6033 14.7049C15.1102 11.6963 18.7522 9.8 22.7907 9.8H104.837C107.358 9.8 109.395 7.6048 109.395 4.9C109.395 2.1952 107.358 0 104.837 0H22.7907C10.2057 0 0 10.9711 0 24.5V73.5C0 87.0289 10.2057 98 22.7907 98H95.7209C103.274 98 109.395 91.4193 109.395 83.3V34.3C109.395 26.1807 103.274 19.6 95.7209 19.6ZM100.279 83.3C100.279 85.9999 98.237 88.2 95.7209 88.2H22.7907C15.2515 88.2 9.11628 81.6046 9.11628 73.5V24.4902C13.0089 27.6213 17.795 29.4 22.7907 29.4H95.7209C98.237 29.4 100.279 31.6001 100.279 34.3V83.3ZM91.1628 58.8C91.1628 61.5048 89.1207 63.7 86.6046 63.7C84.0886 63.7 82.0465 61.5048 82.0465 58.8C82.0465 56.0952 84.0886 53.9 86.6046 53.9C89.1207 53.9 91.1628 56.0952 91.1628 58.8Z" fill="white"/>
</svg>
