<svg width="32" height="32" viewBox="0 0 32 32" fill="none" xmlns="http://www.w3.org/2000/svg">
<path fill-rule="evenodd" clip-rule="evenodd" d="M22.6664 12C22.9301 12 23.1878 12.0782 23.407 12.2248C23.6262 12.3713 23.7971 12.5795 23.898 12.8231C23.9988 13.0667 24.0253 13.3347 23.9738 13.5933C23.9224 13.8519 23.7955 14.0895 23.6091 14.276L16.9424 20.9426C16.6923 21.1926 16.3533 21.333 15.9997 21.333C15.6462 21.333 15.3071 21.1926 15.057 20.9426L8.39038 14.276C8.20397 14.0895 8.07703 13.8519 8.0256 13.5933C7.97418 13.3347 8.00059 13.0667 8.10148 12.8231C8.20237 12.5795 8.37322 12.3713 8.59244 12.2248C8.81165 12.0782 9.06938 12 9.33305 12H22.6664Z" fill="#222222"/>
</svg>
