<svg width="32" height="32" viewBox="0 0 32 32" fill="none" xmlns="http://www.w3.org/2000/svg">
<g clip-path="url(#clip0_1698_1625)">
<path d="M28.128 18.998C27.592 18.85 27.044 19.16 26.896 19.692L26.462 21.252C26.33 21.692 25.934 22 25.5 22H10.6C10.142 22 9.736 21.672 9.636 21.222L7.132 10H11C11.552 10 12 9.552 12 9C12 8.448 11.552 8 11 8H6.686L6.318 6.346C6.022 4.988 4.794 4 3.4 4H1C0.448 4 0 4.448 0 5C0 5.552 0.448 6 1 6H3.4C3.86 6 4.266 6.326 4.364 6.778L7.684 21.658C7.986 23.014 9.212 24 10.6 24H25.5C26.808 24 27.992 23.108 28.382 21.808L28.822 20.228C28.972 19.696 28.662 19.144 28.128 18.998Z" fill="#84EA03"/>
<path d="M13 26C11.346 26 10 27.346 10 29C10 30.654 11.346 32 13 32C14.654 32 16 30.654 16 29C16 27.346 14.654 26 13 26ZM13 30C12.448 30 12 29.552 12 29C12 28.448 12.448 28 13 28C13.552 28 14 28.448 14 29C14 29.552 13.552 30 13 30Z" fill="#84EA03"/>
<path d="M23 26C21.346 26 20 27.346 20 29C20 30.654 21.346 32 23 32C24.654 32 26 30.654 26 29C26 27.346 24.654 26 23 26ZM23 30C22.448 30 22 29.552 22 29C22 28.448 22.448 28 23 28C23.552 28 24 28.448 24 29C24 29.552 23.552 30 23 30Z" fill="#84EA03"/>
<path d="M23 0C18.038 0 14 4.038 14 9C14 13.962 18.038 18 23 18C27.962 18 32 13.962 32 9C32 4.038 27.962 0 23 0ZM23 16C19.14 16 16 12.86 16 9C16 5.14 19.14 2 23 2C26.86 2 30 5.14 30 9C30 12.86 26.86 16 23 16Z" fill="#84EA03"/>
<path d="M27 8H24V5C24 4.448 23.552 4 23 4C22.448 4 22 4.448 22 5V8H19C18.448 8 18 8.448 18 9C18 9.552 18.448 10 19 10H22V13C22 13.552 22.448 14 23 14C23.552 14 24 13.552 24 13V10H27C27.552 10 28 9.552 28 9C28 8.448 27.552 8 27 8Z" fill="#84EA03"/>
</g>
<defs>
<clipPath id="clip0_1698_1625">
<rect width="32" height="32" fill="white"/>
</clipPath>
</defs>
</svg>
