<svg width="53" height="53" viewBox="0 0 53 53" fill="none" xmlns="http://www.w3.org/2000/svg">
<circle cx="26.5" cy="26.5" r="26.5" fill="#F7EFDC"/>
<path d="M26.8783 17.4146C27.7947 17.4146 28.5376 18.1574 28.5376 19.0738V22.9412C28.5376 24.1957 29.5545 25.2126 30.809 25.2126H34.6764C35.5967 25.2126 36.3426 25.9586 36.3426 26.8788C36.3426 27.799 35.5967 28.545 34.6764 28.545H30.809C29.5545 28.545 28.5376 29.562 28.5376 30.8165V34.6839C28.5376 35.6003 27.7947 36.3431 26.8783 36.3431C25.962 36.3431 25.2191 35.6003 25.2191 34.6839V30.8165C25.2191 29.562 24.2022 28.545 22.9477 28.545H19.0803C18.16 28.545 17.4141 27.799 17.4141 26.8788C17.4141 25.9586 18.16 25.2126 19.0802 25.2126H22.9477C24.2022 25.2126 25.2191 24.1957 25.2191 22.9412V19.0738C25.2191 18.1574 25.962 17.4146 26.8783 17.4146Z" fill="#CCC3AF"/>
</svg>
