<svg width="12" height="12" viewBox="0 0 12 12" fill="none" xmlns="http://www.w3.org/2000/svg">
<path d="M5.28501 0.290792L0.285013 5.29079C0.193973 5.38589 0.122608 5.49804 0.0750132 5.62079C-0.0250048 5.86425 -0.0250048 6.13733 0.0750133 6.38079C0.122608 6.50354 0.193973 6.61569 0.285013 6.71079L5.28501 11.7108C5.37825 11.804 5.48894 11.878 5.61076 11.9285C5.73259 11.9789 5.86315 12.0049 5.99501 12.0049C6.26132 12.0049 6.51671 11.8991 6.70501 11.7108C6.89332 11.5225 6.9991 11.2671 6.9991 11.0008C6.9991 10.7345 6.89332 10.4791 6.70501 10.2908L3.40501 7.00079L10.995 7.00079C11.2602 7.00079 11.5146 6.89543 11.7021 6.7079C11.8897 6.52036 11.995 6.26601 11.995 6.00079C11.995 5.73557 11.8897 5.48122 11.7021 5.29368C11.5146 5.10615 11.2602 5.00079 10.995 5.00079L3.40501 5.00079L6.70501 1.71079C6.79874 1.61783 6.87314 1.50723 6.9239 1.38537C6.97467 1.26351 7.00081 1.1328 7.00081 1.00079C7.00081 0.86878 6.97467 0.738074 6.9239 0.616214C6.87314 0.494355 6.79874 0.383755 6.70501 0.290792C6.61205 0.197064 6.50145 0.122668 6.37959 0.0718991C6.25773 0.0211303 6.12703 -0.00500706 5.99501 -0.00500705C5.863 -0.00500705 5.7323 0.0211303 5.61044 0.0718992C5.48858 0.122668 5.37798 0.197064 5.28501 0.290792Z" fill="#A81818"/>
</svg>
