<svg width="22" height="22" viewBox="0 0 22 22" fill="none" xmlns="http://www.w3.org/2000/svg">
<path d="M11.0026 1.8335C12.4613 1.8335 13.8602 2.41296 14.8917 3.44441C15.9231 4.47586 16.5026 5.87481 16.5026 7.3335V8.25016H20.1693V10.0835H19.0995L18.4056 18.4096C18.3865 18.6386 18.2821 18.8522 18.113 19.0079C17.9439 19.1636 17.7225 19.25 17.4926 19.2502H4.5126C4.28259 19.2503 4.06094 19.1639 3.89164 19.0082C3.72235 18.8525 3.61778 18.6388 3.59869 18.4096L2.90477 10.0835H1.83594V8.25016H5.5026V7.3335C5.5026 5.87481 6.08207 4.47586 7.11352 3.44441C8.14497 2.41296 9.54391 1.8335 11.0026 1.8335ZM17.2598 10.0835H4.74452L5.35594 17.4168H16.6484L17.2598 10.0835ZM11.9193 11.9168V15.5835H10.0859V11.9168H11.9193ZM8.2526 11.9168V15.5835H6.41927V11.9168H8.2526ZM15.5859 11.9168V15.5835H13.7526V11.9168H15.5859ZM11.0026 3.66683C10.0619 3.66683 9.15714 4.02839 8.47553 4.67674C7.79391 5.32509 7.38756 6.21062 7.34052 7.15016L7.33594 7.3335V8.25016H14.6693V7.3335C14.6693 6.39277 14.3077 5.48804 13.6594 4.80642C13.011 4.1248 12.1255 3.71845 11.1859 3.67141L11.0026 3.66683Z" fill="white"/>
</svg>
