<svg width="18" height="22" viewBox="0 0 18 22" fill="none" xmlns="http://www.w3.org/2000/svg">
<path d="M15.75 0.5H2.25C1.65346 0.500651 1.08154 0.737913 0.659729 1.15973C0.237913 1.58154 0.000651147 2.15346 0 2.75V19.25C0.000651147 19.8465 0.237913 20.4185 0.659729 20.8403C1.08154 21.2621 1.65346 21.4993 2.25 21.5H15.75C16.3465 21.4993 16.9185 21.2621 17.3403 20.8403C17.7621 20.4185 17.9993 19.8465 18 19.25V2.75C17.9993 2.15346 17.7621 1.58154 17.3403 1.15973C16.9185 0.737913 16.3465 0.500651 15.75 0.5ZM2.25 2H15.75C15.9489 2.0002 16.1395 2.07928 16.2801 2.21989C16.4207 2.3605 16.4998 2.55115 16.5 2.75V5.75H1.5V2.75C1.5002 2.55115 1.57928 2.3605 1.71989 2.21989C1.8605 2.07928 2.05115 2.0002 2.25 2ZM15.75 20H2.25C2.05115 19.9998 1.8605 19.9207 1.71989 19.7801C1.57928 19.6395 1.5002 19.4489 1.5 19.25V7.25H16.5V19.25C16.4998 19.4489 16.4207 19.6395 16.2801 19.7801C16.1395 19.9207 15.9489 19.9998 15.75 20Z" fill="#373737"/>
<path d="M3.375 4.625H6.375C6.57391 4.625 6.76468 4.54598 6.90533 4.40533C7.04598 4.26468 7.125 4.07391 7.125 3.875C7.125 3.67609 7.04598 3.48532 6.90533 3.34467C6.76468 3.20402 6.57391 3.125 6.375 3.125H3.375C3.17609 3.125 2.98532 3.20402 2.84467 3.34467C2.70402 3.48532 2.625 3.67609 2.625 3.875C2.625 4.07391 2.70402 4.26468 2.84467 4.40533C2.98532 4.54598 3.17609 4.625 3.375 4.625Z" fill="#373737"/>
<path d="M13.875 4.625H14.625C14.8239 4.625 15.0147 4.54598 15.1553 4.40533C15.296 4.26468 15.375 4.07391 15.375 3.875C15.375 3.67609 15.296 3.48532 15.1553 3.34467C15.0147 3.20402 14.8239 3.125 14.625 3.125H13.875C13.6761 3.125 13.4853 3.20402 13.3447 3.34467C13.204 3.48532 13.125 3.67609 13.125 3.875C13.125 4.07391 13.204 4.26468 13.3447 4.40533C13.4853 4.54598 13.6761 4.625 13.875 4.625Z" fill="#373737"/>
<path d="M13.1138 10.3709L13.1122 10.3666L13.104 10.3577C12.4315 9.51137 11.5141 8.89319 10.4771 8.58764C9.44014 8.28209 8.33414 8.30405 7.31012 8.65052C6.2861 8.99699 5.39397 9.65109 4.75557 10.5235C4.11716 11.3959 3.76359 12.4441 3.74313 13.525C3.72267 14.6058 4.03632 15.6666 4.64125 16.5626C5.24618 17.4585 6.11291 18.1459 7.12309 18.5309C8.13326 18.9159 9.23764 18.9797 10.2854 18.7136C11.3332 18.4475 12.2733 17.8645 12.9774 17.0442C12.9926 17.0304 13.0048 17.0136 13.0189 16.9985C13.0436 16.9691 13.0675 16.939 13.0916 16.9091C13.0978 16.8999 13.1064 16.8932 13.1122 16.8837L13.1138 16.8794C13.8507 15.9547 14.2519 14.8074 14.2519 13.6251C14.2519 12.4428 13.8507 11.2955 13.1138 10.3709ZM11.6269 13.6251C11.6257 12.979 11.8653 12.3557 12.299 11.8768C12.596 12.4116 12.7519 13.0133 12.7519 13.6251C12.7519 14.2369 12.596 14.8387 12.299 15.3735C11.8653 14.8946 11.6257 14.2712 11.6269 13.6251ZM5.25189 13.6251C5.25305 12.6309 5.64852 11.6778 6.35153 10.9748C7.05453 10.2718 8.00768 9.8763 9.00189 9.87514C9.85326 9.87884 10.6775 10.175 11.3365 10.7141C10.9531 11.0958 10.6489 11.5494 10.4413 12.049C10.2337 12.5485 10.1269 13.0842 10.1269 13.6251C10.1269 14.1661 10.2337 14.7017 10.4413 15.2013C10.6489 15.7009 10.9531 16.1545 11.3365 16.5361C10.6775 17.0752 9.85326 17.3714 9.00189 17.3751C8.00768 17.374 7.05453 16.9785 6.35153 16.2755C5.64852 15.5725 5.25305 14.6193 5.25189 13.6251Z" fill="#373737"/>
</svg>
