<svg width="9" height="9" viewBox="0 0 9 9" fill="none" xmlns="http://www.w3.org/2000/svg">
<path fill-rule="evenodd" clip-rule="evenodd" d="M7.78243 9C7.47145 9 7.16047 8.87874 6.92328 8.6415L4.49868 6.22159L2.07936 8.6415C1.60498 9.11599 0.830161 9.11599 0.355783 8.6415C-0.118594 8.16701 -0.118594 7.39728 0.355783 6.92279L2.78038 4.49761L0.355783 2.07771C-0.39795 1.31853 0.129136 0.000497116 1.22021 0.000497116C1.54173 0.000497116 1.84744 0.127028 2.07936 0.353729L4.49868 2.7789L6.92328 0.353729C7.68228 -0.400184 9 0.127028 9 1.21836C9 1.53996 8.8735 1.84574 8.64158 2.07771L6.22226 4.49761L8.64158 6.92279C9.40586 7.68724 8.86296 9 7.78243 9Z" fill="#4F4F4F"/>
</svg>
