<svg width="16" height="17" viewBox="0 0 16 17" fill="none" xmlns="http://www.w3.org/2000/svg">
<path fill-rule="evenodd" clip-rule="evenodd" d="M0.334328 0.836705C0.548463 0.622442 0.838853 0.502087 1.14163 0.502087C1.44441 0.502087 1.7348 0.622442 1.94893 0.836705L7.99282 6.88584L14.0367 0.836705C14.1421 0.727539 14.2681 0.640476 14.4074 0.580579C14.5467 0.520682 14.6966 0.489162 14.8482 0.487836C14.9998 0.486522 15.1502 0.515436 15.2905 0.572899C15.4309 0.630362 15.5583 0.71523 15.6655 0.822533C15.7727 0.929836 15.8576 1.05744 15.915 1.19789C15.9723 1.33835 16.0012 1.48884 16 1.64059C15.9986 1.79234 15.9671 1.9423 15.9072 2.08173C15.8474 2.22116 15.7604 2.34728 15.6513 2.45269L9.60742 8.50184L15.6513 14.551C15.8594 14.7665 15.9745 15.0552 15.9719 15.3549C15.9692 15.6545 15.8492 15.9411 15.6374 16.153C15.4257 16.3649 15.1393 16.4851 14.8399 16.4878C14.5405 16.4904 14.2521 16.3752 14.0367 16.167L7.99282 10.1178L1.94893 16.167C1.73358 16.3752 1.44514 16.4904 1.14574 16.4878C0.846343 16.4851 0.559951 16.3649 0.348237 16.153C0.136522 15.9411 0.0164318 15.6545 0.0138398 15.3549C0.0112363 15.0552 0.126325 14.7665 0.334328 14.551L6.37822 8.50184L0.334328 2.45269C0.120262 2.23838 0 1.94774 0 1.64469C0 1.34165 0.120262 1.05101 0.334328 0.836705Z" fill="#a81818"/>
</svg>
