<svg width="22" height="24" viewBox="0 0 22 24" fill="none" xmlns="http://www.w3.org/2000/svg">
<path d="M13.6666 12V22.5067C13.7199 22.9067 13.5866 23.3333 13.2799 23.6133C13.1566 23.7369 13.0101 23.835 12.8488 23.9019C12.6875 23.9688 12.5146 24.0033 12.3399 24.0033C12.1653 24.0033 11.9924 23.9688 11.8311 23.9019C11.6698 23.835 11.5233 23.7369 11.3999 23.6133L8.71993 20.9333C8.57451 20.7912 8.46394 20.6173 8.39686 20.4253C8.32978 20.2333 8.30802 20.0285 8.33326 19.8267V12H8.29326L0.613264 2.16C0.396742 1.88204 0.299042 1.52968 0.341515 1.17991C0.383987 0.830136 0.563177 0.511395 0.839931 0.293333C1.09326 0.106667 1.37326 0 1.6666 0H20.3333C20.6266 0 20.9066 0.106667 21.1599 0.293333C21.4367 0.511395 21.6159 0.830136 21.6583 1.17991C21.7008 1.52968 21.6031 1.88204 21.3866 2.16L13.7066 12H13.6666Z" fill="#373737"/>
</svg>
