<svg width="674" height="119" viewBox="0 0 674 119" fill="none" xmlns="http://www.w3.org/2000/svg">
<g clip-path="url(#clip0_1042_1808)">
<path d="M56.8796 -0.167512C57.8958 -0.160565 58.9112 -0.167503 59.9273 -0.175722C73.5855 -0.194791 86.8892 4.39608 96.6867 14.0138C100.403 17.8047 107.123 25.5337 107.123 31.0446C106.731 31.1957 106.731 31.1957 106.331 31.3498C103.608 32.3988 100.885 33.448 98.1623 34.4972C97.1463 34.8887 96.1303 35.2802 95.1144 35.6716C93.6534 36.2344 92.1925 36.7974 90.7315 37.3604C90.051 37.6225 90.051 37.6225 89.3568 37.8899C88.9314 38.0539 88.5061 38.2178 88.0679 38.3867C87.6952 38.5303 87.3224 38.674 86.9384 38.8219C86.2054 39.1067 85.4786 39.4073 84.7576 39.7209C83.7022 40.0989 83.7022 40.0989 81.9673 40.0989C81.8673 39.8734 81.7672 39.6478 81.6641 39.4154C78.6208 32.622 75.3516 26.4448 68.1984 23.2164C60.7295 20.4368 52.3856 20.8067 45.0639 23.8378C38.0972 27.32 33.7939 33.3703 31.2222 40.5301C29.2273 46.825 28.4497 53.0016 28.4843 59.582C28.4855 60.0507 28.4855 60.0507 28.4867 60.529C28.5334 71.5085 30.5438 82.5978 38.6496 90.6911C43.8786 95.5008 50.743 97.6348 57.8095 97.5627C64.7789 97.0433 71.8019 94.2366 76.4781 88.9682C80.2395 84.2319 81.9161 79.5 83.7022 73.7294C75.9733 73.5871 68.2445 73.4448 60.2814 73.2982C60.2814 66.8955 60.2814 60.4928 60.2814 53.896C77.3135 53.896 94.3457 53.896 111.894 53.896C111.894 75.7713 111.894 75.7713 110.078 82.1909C109.985 82.5266 109.893 82.8624 109.797 83.2083C106.119 95.9602 97.3701 106.303 85.8141 112.792C83.0282 114.296 80.1952 115.553 77.1964 116.576C76.7736 116.722 76.7736 116.722 76.3421 116.872C70.297 118.794 64.1748 119.223 57.8719 119.193C56.6815 119.19 55.492 119.202 54.3016 119.216C47.5076 119.243 40.7315 118.388 34.3666 115.902C33.8669 115.712 33.8669 115.712 33.357 115.519C28.0887 113.445 23.3375 110.649 19.078 106.929C18.7286 106.643 18.3792 106.357 18.0191 106.063C10.2036 99.473 5.0966 89.9937 2.29851 80.3046C2.2159 80.0229 2.1333 79.7411 2.04819 79.4509C0.408479 73.43 -0.223571 67.4296 -0.17526 61.2121C-0.168273 60.148 -0.175252 59.0847 -0.18352 58.0207C-0.192359 51.7226 0.589408 45.5784 2.51537 39.56C2.62816 39.2005 2.74096 38.8411 2.85718 38.4707C7.09683 25.2676 16.0909 13.1071 28.6148 6.61504C37.6626 2.10343 46.7467 -0.249475 56.8796 -0.167512Z" fill="white"/>
<path d="M390.348 36.219C398.935 36.219 407.523 36.219 416.371 36.219C417.835 40.5845 417.835 40.5845 418.254 42.2925C418.35 42.6805 418.446 43.0685 418.545 43.4683C418.645 43.8796 418.745 44.291 418.848 44.7149C418.957 45.1591 419.067 45.6034 419.18 46.0611C419.538 47.5172 419.894 48.9738 420.251 50.4305C420.5 51.4465 420.75 52.4625 421 53.4785C421.656 56.1442 422.31 58.8104 422.963 61.4767C424.012 65.7533 425.063 70.0293 426.114 74.3053C426.481 75.7991 426.848 77.2932 427.214 78.7872C427.437 79.6987 427.661 80.6102 427.885 81.5217C427.987 81.9383 428.089 82.3549 428.194 82.7842C428.287 83.1649 428.381 83.5456 428.477 83.9379C428.558 84.2687 428.639 84.5995 428.723 84.9403C428.913 85.6671 429.144 86.3834 429.382 87.0958C430.527 83.2114 431.671 79.3267 432.814 75.4419C433.095 74.4888 433.375 73.5358 433.656 72.5827C435.652 65.8032 437.642 59.0222 439.604 52.2326C439.755 51.7088 439.906 51.185 440.062 50.6454C440.775 48.1775 441.486 45.7092 442.195 43.2401C442.448 42.3639 442.7 41.4877 442.953 40.6115C443.067 40.2122 443.181 39.813 443.298 39.4016C443.402 39.0422 443.506 38.6828 443.613 38.3125C443.703 37.9997 443.793 37.6869 443.885 37.3646C444.129 36.6502 444.129 36.6502 444.563 36.219C445.228 36.1789 445.896 36.1684 446.563 36.1701C446.988 36.1701 447.414 36.1702 447.852 36.1702C448.315 36.1724 448.777 36.1746 449.254 36.1769C449.961 36.1779 449.961 36.1779 450.681 36.1788C452.193 36.1812 453.704 36.1866 455.216 36.1921C456.238 36.1943 457.26 36.1962 458.282 36.198C460.793 36.2024 463.304 36.2105 465.815 36.219C467.659 42.5254 469.387 48.8546 471.043 55.2119C471.282 56.127 471.522 57.0421 471.761 57.9571C472.383 60.332 473.003 62.7072 473.622 65.0825C474.258 67.5197 474.896 69.9566 475.533 72.3935C476.777 77.1502 478.019 81.9073 479.26 86.6647C479.889 85.4909 480.327 84.3798 480.668 83.095C480.814 82.5466 480.814 82.5466 480.964 81.9872C481.069 81.5897 481.173 81.1921 481.28 80.7825C481.393 80.3609 481.505 79.9393 481.621 79.5049C481.992 78.1098 482.36 76.714 482.728 75.3181C482.986 74.3459 483.244 73.3737 483.503 72.4016C484.183 69.8386 484.862 67.2751 485.54 64.7114C486.36 61.61 487.184 58.5093 488.006 55.4085C488.647 52.9925 489.288 50.5764 489.927 48.1601C490.105 47.4885 490.105 47.4885 490.287 46.8035C490.505 45.9769 490.724 45.1503 490.943 44.3236C491.659 41.6175 492.398 38.919 493.139 36.219C501.154 36.219 509.169 36.219 517.427 36.219C515.964 42.0393 515.964 42.0393 515.341 44.0725C515.199 44.5374 515.057 45.0022 514.911 45.4811C514.76 45.9728 514.608 46.4645 514.452 46.9711C514.201 47.7935 513.95 48.6159 513.698 49.4384C513.43 50.3166 513.16 51.1946 512.891 52.0726C512.32 53.9331 511.751 55.7941 511.182 57.6552C510.576 59.638 509.969 61.6207 509.363 63.6033C507.297 70.3516 505.239 77.1019 503.183 83.8531C502.557 85.9098 501.93 87.9664 501.303 90.0228C500.808 91.6458 500.314 93.2689 499.819 94.8921C499.724 95.2055 499.628 95.519 499.53 95.842C498.386 99.5988 497.253 103.359 496.135 107.123C496.024 107.495 495.914 107.866 495.8 108.249C495.264 110.05 494.73 111.852 494.198 113.654C494.007 114.299 493.816 114.943 493.625 115.587C493.538 115.884 493.451 116.181 493.361 116.488C492.755 118.522 492.755 118.522 492.272 119.002C491.5 119.042 490.726 119.052 489.953 119.051C489.458 119.051 488.963 119.051 488.453 119.05C487.915 119.048 487.376 119.046 486.821 119.044C485.999 119.043 485.999 119.043 485.16 119.042C483.701 119.04 482.241 119.036 480.782 119.031C479.293 119.027 477.805 119.025 476.316 119.023C473.394 119.018 470.472 119.011 467.55 119.002C467.431 118.573 467.431 118.573 467.311 118.135C466.288 114.426 465.265 110.718 464.243 107.01C464.16 106.711 464.078 106.413 463.993 106.105C460.699 94.1628 457.403 82.2215 454.104 70.2806C453.246 72.4941 452.488 74.6936 451.835 76.9775C451.747 77.2824 451.659 77.5873 451.569 77.9015C451.282 78.9022 450.996 79.9034 450.711 80.9047C450.507 81.6152 450.304 82.3257 450.1 83.0361C449.563 84.9081 449.028 86.7805 448.493 88.653C447.961 90.514 447.428 92.3746 446.895 94.2352C446.069 97.1153 445.245 99.9956 444.421 102.876C442.883 108.253 441.338 113.627 439.792 119.002C431.49 119.002 423.189 119.002 414.636 119.002C396.349 57.2638 396.349 57.2638 390.348 36.219Z" fill="white"/>
<path d="M359.554 0C367.712 0 375.871 0 384.276 0C384.276 39.27 384.276 78.54 384.276 119C376.118 119 367.959 119 359.554 119C359.411 114.874 359.268 110.748 359.12 106.496C357.188 108.844 357.188 108.844 355.217 111.239C349.958 116.545 343.374 119.121 335.9 119.202C335.431 119.198 334.962 119.193 334.48 119.189C333.986 119.185 333.492 119.181 332.983 119.178C324.176 119.003 317.078 115.742 310.977 109.514C310.683 109.221 310.389 108.928 310.086 108.625C303.162 101.283 300.428 90.0245 300.134 80.1956C300.117 79.6499 300.1 79.1041 300.082 78.5417C299.834 66.6935 301.897 54.2129 309.676 44.8406C309.953 44.4954 310.23 44.1503 310.515 43.7947C315.408 37.9714 322.568 34.6254 330.061 33.6304C338.761 33.1383 347.16 34.1614 354.133 39.8014C355.989 41.7459 357.534 43.9659 359.12 46.1341C359.263 30.9098 359.407 15.6856 359.554 0ZM326.28 57.2347C320.737 63.995 320.226 73.7859 321.058 82.1133C321.508 85.6662 322.158 89.1399 323.989 92.2681C324.176 92.5988 324.364 92.9295 324.557 93.2702C326.496 96.4317 329.085 98.7783 332.718 99.8252C337.89 100.671 343.327 100.596 347.703 97.4774C352.68 93.3356 354.961 87.8387 355.651 81.4891C356.075 73.0628 355.753 64.1698 350.049 57.361C346.681 54.0878 343.039 52.5964 338.383 52.4667C333.644 52.5516 329.666 53.8148 326.28 57.2347Z" fill="white"/>
<path d="M587.091 42.4059C595.965 50.1485 599.122 60.6364 600.265 72.0042C600.265 75.5612 600.265 79.1183 600.265 82.7831C581.659 82.7831 563.052 82.7831 543.882 82.7831C545.875 92.0365 545.875 92.0365 552.122 98.3049C557.067 100.829 563.454 101.413 568.848 99.9756C573.255 98.3523 576.437 95.2479 579.013 91.4063C580.74 91.6717 582.092 92.2142 583.647 92.9996C584.118 93.236 584.589 93.4724 585.075 93.7159C585.57 93.9675 586.066 94.2191 586.576 94.4783C587.08 94.7319 587.584 94.9854 588.104 95.2467C589.103 95.7489 590.101 96.2522 591.099 96.7565C592.795 97.6126 594.496 98.4587 596.199 99.3019C596.976 99.6882 597.753 100.074 598.53 100.461C595.985 107.654 588.437 112.489 581.859 115.686C570.252 120.77 555.257 120.558 543.502 116.063C533.278 111.729 525.555 104.425 521.382 94.155C517.208 82.5224 517.421 68.6862 522.577 57.3696C524.333 53.7105 526.383 50.4392 529.135 47.4281C529.487 47.0385 529.839 46.6488 530.201 46.2474C544.263 31.4497 571.162 29.2347 587.091 42.4059ZM548.653 56.9136C546.279 60.0226 544.315 64.1643 544.315 68.1237C554.764 68.1237 565.212 68.1237 575.977 68.1237C575.338 62.4087 574.075 58.4724 569.986 54.4075C563.668 50.0971 553.704 51.1742 548.653 56.9136Z" fill="white"/>
<path d="M281.479 43.5485C281.827 43.8264 282.174 44.1043 282.533 44.3906C290.345 50.9232 294.688 60.747 295.792 70.7116C296.464 83.7962 294.498 95.6853 285.599 105.797C280.463 111.185 274.721 114.949 267.6 117.277C267.191 117.414 267.191 117.414 266.774 117.553C258.124 120.308 246.697 120.16 238.107 117.277C237.82 117.182 237.532 117.087 237.237 116.99C227.002 113.509 219.187 106.421 214.349 96.8795C209.007 85.9198 209.061 72.8771 212.599 61.3877C214.548 55.9384 217.26 51.2792 221.192 46.9978C221.62 46.5268 221.62 46.5268 222.058 46.0462C237.03 30.3832 265.197 29.9006 281.479 43.5485ZM239.796 59.2319C237.631 62.2141 236.514 65.8125 235.938 69.4181C235.89 69.7015 235.842 69.985 235.793 70.277C234.628 78.5687 235.371 87.8917 240.394 94.8565C243.493 98.4251 247.269 100.147 251.964 100.531C256.788 100.729 260.954 99.3408 264.564 96.15C269.937 90.5969 270.858 82.7237 270.787 75.366C270.597 68.3144 269.053 61.8074 264.13 56.4833C263.103 55.6827 263.103 55.6827 262.016 55.082C261.668 54.8753 261.32 54.6685 260.962 54.4555C253.462 50.868 245.065 53.1434 239.796 59.2319Z" fill="white"/>
<path d="M191.181 43.1365C199.931 50.8335 205.041 60.7378 206.018 72.4352C206.756 85.067 203.625 96.5472 195.292 106.285C188.648 113.537 178.502 118.553 168.573 119.077C154.382 119.315 154.382 119.315 148.333 117.276C148.043 117.179 147.754 117.082 147.456 116.982C137.269 113.455 129.346 106.639 124.487 97.087C119.181 86.0887 118.745 72.7152 122.744 61.225C126.691 50.4781 133.864 42.9174 144.077 37.8346C159.114 31.242 178.299 32.5869 191.181 43.1365ZM150.176 58.665C145.025 65.734 144.953 75.5042 145.917 83.8457C146.766 88.8094 148.843 94.408 153.104 97.4424C157.206 99.9667 161.647 101.116 166.432 100.245C170.986 99.1461 174.73 96.8458 177.247 92.8462C181.794 84.3953 181.772 73.7699 179.236 64.6743C177.693 60.1638 174.905 56.5228 170.687 54.1597C163.684 51.1808 155.12 52.8805 150.176 58.665Z" fill="white"/>
<path d="M649.293 0C657.451 0 665.609 0 674.015 0C674.015 39.27 674.015 78.54 674.015 119C665.857 119 657.698 119 649.293 119C649.293 79.73 649.293 40.46 649.293 0Z" fill="white"/>
<path d="M609.371 0C617.529 0 625.688 0 634.093 0C634.093 39.27 634.093 78.54 634.093 119C625.935 119 617.777 119 609.371 119C609.371 79.73 609.371 40.46 609.371 0Z" fill="white"/>
</g>
<defs>
<clipPath id="clip0_1042_1808">
<rect width="674" height="119" fill="white"/>
</clipPath>
</defs>
</svg>
