<svg width="154" height="27" viewBox="0 0 154 27" fill="none" xmlns="http://www.w3.org/2000/svg">
<g clip-path="url(#clip0_681_1343)">
<path d="M12.9952 -0.0381627C13.2274 -0.0365867 13.4594 -0.0381608 13.6916 -0.0400256C16.8123 -0.0443521 19.852 0.997274 22.0906 3.17945C22.9398 4.03957 24.4752 5.7932 24.4752 7.04358C24.3856 7.07785 24.3856 7.07785 24.2942 7.11282C23.672 7.35083 23.0499 7.58888 22.4277 7.82695C22.1956 7.91577 21.9635 8.00459 21.7313 8.09339C21.3975 8.2211 21.0637 8.34883 20.7299 8.47658C20.5744 8.53605 20.5744 8.53605 20.4158 8.59672C20.3186 8.63392 20.2214 8.67111 20.1213 8.70944C20.0362 8.74202 19.951 8.77461 19.8633 8.80818C19.6958 8.87278 19.5297 8.94099 19.365 9.01215C19.1238 9.09792 19.1238 9.09792 18.7274 9.09792C18.7046 9.04674 18.6817 8.99556 18.6581 8.94283C17.9628 7.40147 17.2158 5.99992 15.5814 5.26742C13.8748 4.63678 11.9684 4.72069 10.2955 5.40843C8.70368 6.19851 7.72043 7.57125 7.13283 9.19575C6.67703 10.624 6.49936 12.0254 6.50727 13.5184C6.50754 13.6248 6.50754 13.6248 6.50781 13.7333C6.51849 16.2245 6.97784 18.7405 8.8299 20.5768C10.0246 21.6681 11.5931 22.1523 13.2077 22.1359C14.8001 22.0181 16.4048 21.3813 17.4732 20.1859C18.3326 19.1113 18.7157 18.0377 19.1238 16.7284C17.3579 16.6961 15.5919 16.6638 13.7725 16.6305C13.7725 15.1778 13.7725 13.7251 13.7725 12.2284C17.6641 12.2284 21.5557 12.2284 25.5653 12.2284C25.5653 17.1917 25.5653 17.1917 25.1503 18.6482C25.1291 18.7244 25.108 18.8005 25.0861 18.879C24.2458 21.7723 22.2467 24.1189 19.6063 25.5913C18.9698 25.9326 18.3225 26.2176 17.6373 26.4498C17.5407 26.4831 17.5407 26.4831 17.4421 26.517C16.0609 26.9531 14.6621 27.0504 13.2219 27.0437C12.9499 27.0429 12.6782 27.0457 12.4062 27.0488C10.8538 27.055 9.30559 26.8611 7.8513 26.297C7.73711 26.2539 7.73711 26.2539 7.62061 26.21C6.41688 25.7394 5.33129 25.1051 4.35806 24.261C4.27821 24.1961 4.19837 24.1313 4.11611 24.0646C2.33037 22.5693 1.16349 20.4186 0.524158 18.2202C0.505284 18.1563 0.48641 18.0924 0.466963 18.0265C0.0923121 16.6604 -0.0521031 15.299 -0.0410647 13.8883C-0.0394681 13.6469 -0.0410628 13.4056 -0.0429518 13.1642C-0.0449716 11.7352 0.133652 10.3412 0.573708 8.97564C0.59948 8.89408 0.625253 8.81253 0.651806 8.7285C1.62051 5.73283 3.67554 2.97372 6.53707 1.50074C8.60437 0.477092 10.68 -0.0567595 12.9952 -0.0381627Z" fill="white"/>
<path d="M89.1875 8.21769C91.1497 8.21769 93.1118 8.21769 95.1334 8.21769C95.4679 9.20816 95.4679 9.20816 95.5636 9.59569C95.5856 9.68373 95.6075 9.77177 95.6301 9.86247C95.653 9.95581 95.6759 10.0491 95.6994 10.1453C95.7245 10.2461 95.7495 10.3469 95.7752 10.4508C95.8571 10.7811 95.9385 11.1116 96.0199 11.4421C96.077 11.6727 96.1341 11.9032 96.1912 12.1337C96.3411 12.7385 96.4905 13.3435 96.6398 13.9484C96.8793 14.9187 97.1195 15.8889 97.3597 16.8591C97.4436 17.198 97.5272 17.537 97.6109 17.876C97.662 18.0828 97.7131 18.2896 97.7643 18.4964C97.7875 18.591 97.8108 18.6855 97.8348 18.7829C97.8562 18.8693 97.8776 18.9556 97.8996 19.0446C97.9181 19.1197 97.9366 19.1948 97.9557 19.2721C97.9992 19.437 98.0518 19.5995 98.1064 19.7612C98.368 18.8798 98.6293 17.9984 98.8906 17.117C98.9547 16.9007 99.0188 16.6845 99.0829 16.4683C99.5389 14.9301 99.9937 13.3915 100.442 11.851C100.476 11.7322 100.511 11.6133 100.547 11.4909C100.71 10.931 100.872 10.3709 101.034 9.81071C101.092 9.6119 101.149 9.41309 101.207 9.21429C101.233 9.1237 101.259 9.03311 101.286 8.93978C101.31 8.85824 101.333 8.77669 101.358 8.69268C101.378 8.62171 101.399 8.55073 101.42 8.47761C101.476 8.31551 101.476 8.31551 101.575 8.21769C101.727 8.20857 101.88 8.2062 102.032 8.20658C102.129 8.20659 102.226 8.2066 102.326 8.2066C102.432 8.20711 102.538 8.20761 102.647 8.20813C102.808 8.20834 102.808 8.20834 102.973 8.20855C103.318 8.2091 103.664 8.21033 104.009 8.21157C104.242 8.21206 104.476 8.21251 104.709 8.21291C105.283 8.21391 105.857 8.21575 106.431 8.21769C106.852 9.64854 107.247 11.0846 107.625 12.527C107.68 12.7346 107.735 12.9422 107.789 13.1499C107.931 13.6887 108.073 14.2276 108.215 14.7665C108.36 15.3195 108.506 15.8724 108.651 16.4253C108.935 17.5046 109.219 18.5839 109.503 19.6633C109.646 19.397 109.747 19.1449 109.824 18.8534C109.858 18.729 109.858 18.729 109.892 18.6021C109.916 18.5119 109.94 18.4217 109.964 18.3287C109.99 18.2331 110.016 18.1374 110.042 18.0389C110.127 17.7223 110.211 17.4056 110.295 17.0889C110.354 16.8683 110.413 16.6477 110.472 16.4272C110.628 15.8457 110.783 15.264 110.938 14.6823C111.125 13.9787 111.313 13.2751 111.501 12.5716C111.648 12.0234 111.794 11.4753 111.94 10.927C111.981 10.7746 111.981 10.7746 112.022 10.6192C112.072 10.4317 112.122 10.2441 112.172 10.0565C112.336 9.44256 112.505 8.83029 112.674 8.21769C114.505 8.21769 116.337 8.21769 118.224 8.21769C117.889 9.53826 117.889 9.53826 117.747 9.99957C117.714 10.105 117.682 10.2105 117.649 10.3192C117.614 10.4307 117.579 10.5423 117.544 10.6572C117.486 10.8438 117.429 11.0304 117.371 11.217C117.31 11.4163 117.249 11.6155 117.187 11.8147C117.057 12.2368 116.926 12.6591 116.796 13.0814C116.658 13.5312 116.519 13.9811 116.381 14.4309C115.909 15.962 115.439 17.4936 114.969 19.0254C114.826 19.4921 114.683 19.9587 114.539 20.4253C114.426 20.7935 114.313 21.1618 114.2 21.5301C114.179 21.6012 114.157 21.6723 114.134 21.7456C113.873 22.598 113.614 23.4511 113.358 24.3053C113.333 24.3895 113.308 24.4738 113.282 24.5606C113.16 24.9693 113.037 25.3781 112.916 25.7871C112.872 25.9332 112.829 26.0794 112.785 26.2256C112.765 26.293 112.745 26.3604 112.725 26.4299C112.586 26.8914 112.586 26.8914 112.476 27.0003C112.299 27.0095 112.123 27.0118 111.946 27.0114C111.833 27.0114 111.72 27.0114 111.603 27.0114C111.48 27.0109 111.357 27.0104 111.23 27.0098C111.043 27.0096 111.043 27.0096 110.851 27.0094C110.517 27.009 110.184 27.0081 109.85 27.007C109.51 27.006 109.17 27.0056 108.83 27.0051C108.163 27.004 107.495 27.0023 106.827 27.0003C106.8 26.9029 106.8 26.9029 106.773 26.8036C106.539 25.9622 106.305 25.1209 106.072 24.2795C106.053 24.2117 106.034 24.144 106.014 24.0741C105.262 21.3646 104.509 18.6552 103.755 15.9459C103.559 16.4482 103.386 16.9472 103.236 17.4654C103.216 17.5346 103.196 17.6038 103.176 17.6751C103.11 17.9021 103.045 18.1293 102.98 18.3564C102.933 18.5177 102.887 18.6789 102.84 18.84C102.717 19.2648 102.595 19.6896 102.473 20.1145C102.351 20.5367 102.23 20.9589 102.108 21.381C101.919 22.0345 101.731 22.688 101.543 23.3416C101.191 24.5615 100.838 25.7809 100.485 27.0003C98.588 27.0003 96.6913 27.0003 94.737 27.0003C90.5586 12.9925 90.5586 12.9925 89.1875 8.21769Z" fill="white"/>
<path d="M82.1516 0C84.0157 0 85.8797 0 87.8003 0C87.8003 8.91 87.8003 17.82 87.8003 27C85.9362 27 84.0721 27 82.1516 27C82.1189 26.0638 82.0862 25.1276 82.0525 24.163C81.611 24.6957 81.611 24.6957 81.1606 25.2391C79.9591 26.4429 78.4547 27.0275 76.7469 27.0458C76.6399 27.0448 76.5328 27.0438 76.4224 27.0428C76.3096 27.042 76.1968 27.0412 76.0805 27.0403C74.0683 27.0006 72.4464 26.2607 71.0525 24.8478C70.9853 24.7812 70.9181 24.7147 70.8489 24.6461C69.2667 22.9801 68.6422 20.4257 68.575 18.1957C68.5711 18.0718 68.5671 17.948 68.563 17.8204C68.5064 15.1321 68.9778 12.3004 70.7552 10.1739C70.8184 10.0956 70.8817 10.0173 70.9468 9.93661C72.0648 8.61536 73.7007 7.85619 75.4129 7.63043C77.4006 7.51878 79.3198 7.75091 80.9129 9.03057C81.3371 9.47176 81.6901 9.97545 82.0525 10.4674C82.0852 7.01315 82.1179 3.55891 82.1516 0ZM74.5489 12.986C73.2825 14.5199 73.1657 16.7413 73.3559 18.6308C73.4586 19.4369 73.6071 20.225 74.0255 20.9348C74.0683 21.0098 74.1111 21.0848 74.1552 21.1622C74.5984 21.8795 75.1899 22.4119 76.0199 22.6494C77.2017 22.8412 78.4439 22.8243 79.4438 22.1167C80.5811 21.177 81.1021 19.9298 81.2597 18.4891C81.3566 16.5773 81.2831 14.5595 79.9799 13.0147C79.2103 12.272 78.378 11.9336 77.3143 11.9042C76.2315 11.9235 75.3226 12.2101 74.5489 12.986Z" fill="white"/>
<path d="M134.142 9.62112C136.17 11.3778 136.891 13.7574 137.152 16.3367C137.152 17.1437 137.152 17.9508 137.152 18.7823C132.901 18.7823 128.649 18.7823 124.269 18.7823C124.725 20.8818 124.725 20.8818 126.152 22.3041C127.282 22.8767 128.741 23.0093 129.974 22.6831C130.981 22.3148 131.708 21.6105 132.296 20.7389C132.691 20.7991 133 20.9221 133.355 21.1004C133.463 21.154 133.57 21.2076 133.681 21.2629C133.795 21.32 133.908 21.3771 134.024 21.4359C134.14 21.4934 134.255 21.5509 134.373 21.6102C134.602 21.7242 134.83 21.8383 135.058 21.9527C135.445 22.147 135.834 22.339 136.223 22.5303C136.401 22.6179 136.578 22.7056 136.756 22.7932C136.174 24.4254 134.45 25.5223 132.947 26.2477C130.295 27.4013 126.868 27.3532 124.183 26.3333C121.846 25.3499 120.082 23.6927 119.128 21.3625C118.175 18.7232 118.223 15.5839 119.401 13.0162C119.803 12.186 120.271 11.4438 120.9 10.7606C120.98 10.6722 121.061 10.5838 121.143 10.4927C124.356 7.13525 130.502 6.63269 134.142 9.62112ZM125.359 12.9128C124.817 13.6182 124.368 14.5579 124.368 15.4562C126.756 15.4562 129.143 15.4562 131.603 15.4562C131.457 14.1596 131.168 13.2665 130.234 12.3442C128.79 11.3662 126.514 11.6106 125.359 12.9128Z" fill="white"/>
<path d="M64.3139 9.88105C64.3934 9.9441 64.4728 10.0072 64.5547 10.0721C66.3398 11.5543 67.332 13.7832 67.5842 16.0441C67.7378 19.0129 67.2885 21.7104 65.2553 24.0047C64.0818 25.227 62.7698 26.0811 61.1427 26.6093C61.0493 26.6404 61.0493 26.6404 60.954 26.6721C58.9776 27.297 56.3666 27.2635 54.404 26.6093C54.3384 26.5878 54.2727 26.5663 54.2051 26.5442C51.8666 25.7544 50.0811 24.1463 48.9757 21.9814C47.7549 19.4947 47.7674 16.5354 48.5757 13.9286C49.0212 12.6922 49.6406 11.6351 50.5391 10.6637C50.637 10.5568 50.637 10.5568 50.7369 10.4478C54.158 6.89396 60.5937 6.78447 64.3139 9.88105ZM54.7899 13.4395C54.2952 14.1161 54.04 14.9325 53.9085 15.7506C53.8975 15.8149 53.8865 15.8792 53.8752 15.9455C53.6091 17.8268 53.779 19.9421 54.9266 21.5224C55.6347 22.3321 56.4975 22.7228 57.5701 22.8098C58.6723 22.8547 59.6242 22.5398 60.449 21.8158C61.6768 20.5559 61.8872 18.7695 61.871 17.1001C61.8275 15.5002 61.4748 14.0238 60.3499 12.8158C60.1152 12.6342 60.1152 12.6342 59.8668 12.4979C59.7874 12.451 59.7079 12.4041 59.6261 12.3557C57.9124 11.5418 55.9937 12.058 54.7899 13.4395Z" fill="white"/>
<path d="M43.6837 9.78745C45.6827 11.5338 46.8504 13.781 47.0735 16.435C47.2422 19.3011 46.5267 21.9059 44.6228 24.1152C43.1049 25.7606 40.7866 26.8986 38.518 27.0176C35.2756 27.0718 35.2756 27.0718 33.8934 26.609C33.8272 26.587 33.7611 26.5649 33.6929 26.5423C31.3654 25.742 29.5551 24.1955 28.4449 22.0283C27.2325 19.5329 27.1329 16.4986 28.0465 13.8916C28.9485 11.4532 30.5874 9.73774 32.921 8.5845C36.3567 7.0887 40.7401 7.39385 43.6837 9.78745ZM34.3145 13.3107C33.1376 14.9146 33.1211 17.1314 33.3414 19.024C33.5353 20.1502 34.0098 21.4205 34.9835 22.109C35.9208 22.6817 36.9355 22.9425 38.0288 22.7448C39.0692 22.4955 39.9246 21.9736 40.4997 21.0661C41.5387 19.1487 41.5338 16.7379 40.9542 14.6742C40.6017 13.6508 39.9647 12.8247 39.0008 12.2885C37.4008 11.6126 35.444 11.9983 34.3145 13.3107Z" fill="white"/>
<path d="M148.355 0C150.22 0 152.084 0 154.004 0C154.004 8.91 154.004 17.82 154.004 27C152.14 27 150.276 27 148.355 27C148.355 18.09 148.355 9.18 148.355 0Z" fill="white"/>
<path d="M139.234 0C141.098 0 142.962 0 144.883 0C144.883 8.91 144.883 17.82 144.883 27C143.019 27 141.155 27 139.234 27C139.234 18.09 139.234 9.18 139.234 0Z" fill="white"/>
</g>
<defs>
<clipPath id="clip0_681_1343">
<rect width="154" height="27" fill="white"/>
</clipPath>
</defs>
</svg>
