<svg width="580" height="103" viewBox="0 0 580 103" fill="none" xmlns="http://www.w3.org/2000/svg">
<g clip-path="url(#clip0_1132_71)">
<path d="M48.9486 -0.145186C49.823 -0.139174 50.6968 -0.145178 51.5712 -0.152293C63.3245 -0.168797 74.7728 3.80481 83.2039 12.1294C86.4021 15.4106 92.1848 22.1004 92.1848 26.8703C91.8473 27.0011 91.8473 27.0011 91.5031 27.1345C89.1599 28.0425 86.8168 28.9506 84.4737 29.8588C83.5995 30.1976 82.7252 30.5364 81.8509 30.8752C80.5937 31.3624 79.3365 31.8496 78.0793 32.337C77.4937 32.5638 77.4937 32.5638 76.8963 32.7953C76.5303 32.9372 76.1643 33.0791 75.7872 33.2253C75.4664 33.3496 75.1457 33.4739 74.8152 33.602C74.1845 33.8484 73.559 34.1086 72.9386 34.3801C72.0304 34.7073 72.0304 34.7073 70.5374 34.7073C70.4513 34.512 70.3652 34.3168 70.2765 34.1156C67.6577 28.2356 64.8443 22.889 58.6888 20.0946C52.2615 17.6888 45.0813 18.0089 38.7808 20.6326C32.7857 23.6466 29.0825 28.8833 26.8695 35.0805C25.1529 40.529 24.4837 45.8751 24.5135 51.5707C24.5145 51.9765 24.5145 51.9765 24.5155 52.3904C24.5557 61.8937 26.2858 71.492 33.2611 78.4972C37.7607 82.6601 43.6678 84.5073 49.7488 84.4449C55.7462 83.9953 61.7897 81.5659 65.8137 77.0059C69.0505 72.9064 70.4933 68.8108 72.0304 63.816C65.3794 63.6928 58.7284 63.5697 51.8759 63.4428C51.8759 57.901 51.8759 52.3591 51.8759 46.6493C66.5327 46.6493 81.1894 46.6493 96.2903 46.6493C96.2903 65.5834 96.2903 65.5834 94.7274 71.1398C94.6477 71.4304 94.568 71.721 94.4859 72.0204C91.3209 83.0578 83.792 92.0096 73.8477 97.6265C71.4504 98.9283 69.0124 100.016 66.4319 100.902C66.068 101.028 66.068 101.028 65.6967 101.158C60.4947 102.822 55.2264 103.193 49.8025 103.167C48.7781 103.164 47.7545 103.175 46.7302 103.187C40.8836 103.21 35.0526 102.47 29.5754 100.318C29.1453 100.154 29.1453 100.154 28.7066 99.9867C24.1731 98.1914 20.0845 95.7717 16.419 92.5515C16.1183 92.3042 15.8176 92.057 15.5078 91.8022C8.78231 86.0983 4.38754 77.8935 1.97968 69.5071C1.9086 69.2633 1.83751 69.0194 1.76427 68.7682C0.353249 63.5569 -0.190652 58.3632 -0.149079 52.9817C-0.143066 52.0607 -0.149072 51.1404 -0.156186 50.2194C-0.163793 44.7681 0.508945 39.45 2.1663 34.2408C2.26336 33.9297 2.36043 33.6186 2.46044 33.298C6.10881 21.8701 13.8485 11.3446 24.6257 5.72542C32.4117 1.82042 40.2288 -0.216129 48.9486 -0.145186Z" fill="#B30111"/>
<path d="M335.906 31.3482C343.296 31.3482 350.686 31.3482 358.3 31.3482C359.56 35.1267 359.56 35.1267 359.92 36.605C360.003 36.9409 360.086 37.2767 360.171 37.6227C360.257 37.9788 360.343 38.3349 360.432 38.7017C360.526 39.0862 360.62 39.4707 360.717 39.8669C361.026 41.1272 361.332 42.388 361.639 43.6488C361.854 44.5283 362.069 45.4077 362.284 46.2871C362.848 48.5944 363.411 50.902 363.973 53.2098C364.875 56.9115 365.78 60.6125 366.685 64.3136C367.001 65.6066 367.316 66.8997 367.631 68.1929C367.823 68.9819 368.016 69.7708 368.208 70.5597C368.296 70.9203 368.384 71.2809 368.474 71.6525C368.554 71.982 368.635 72.3115 368.718 72.651C368.788 72.9374 368.858 73.2237 368.929 73.5187C369.093 74.1477 369.291 74.7677 369.497 75.3844C370.482 72.0222 371.466 68.6599 372.45 65.2974C372.692 64.4724 372.933 63.6475 373.175 62.8226C374.892 56.9546 376.605 51.0853 378.293 45.2086C378.423 44.7553 378.553 44.3019 378.687 43.8348C379.301 41.6988 379.913 39.5623 380.523 37.4252C380.74 36.6668 380.958 35.9084 381.175 35.15C381.273 34.8045 381.371 34.4589 381.472 34.1028C381.561 33.7918 381.651 33.4807 381.743 33.1602C381.82 32.8894 381.898 32.6187 381.977 32.3397C382.187 31.7214 382.187 31.7214 382.56 31.3482C383.133 31.3134 383.707 31.3043 384.281 31.3058C384.647 31.3058 385.013 31.3059 385.391 31.3059C385.789 31.3078 386.187 31.3098 386.597 31.3117C387.205 31.3125 387.205 31.3125 387.826 31.3133C389.126 31.3154 390.427 31.3201 391.728 31.3249C392.607 31.3267 393.486 31.3284 394.366 31.33C396.527 31.3338 398.687 31.3408 400.848 31.3482C402.435 36.8066 403.922 42.2849 405.348 47.7874C405.553 48.5795 405.759 49.3715 405.965 50.1635C406.5 52.2191 407.034 54.2749 407.567 56.3309C408.114 58.4404 408.663 60.5496 409.211 62.6588C410.281 66.776 411.35 70.8935 412.418 75.0112C412.959 73.9952 413.337 73.0335 413.63 71.9215C413.756 71.4469 413.756 71.4469 413.885 70.9627C413.975 70.6185 414.064 70.2744 414.157 69.9199C414.254 69.555 414.35 69.1901 414.45 68.8141C414.769 67.6066 415.086 66.3984 415.403 65.1902C415.625 64.3487 415.847 63.5073 416.069 62.6658C416.655 60.4475 417.239 58.2286 417.822 56.0097C418.528 53.3252 419.237 50.6414 419.945 47.9575C420.496 45.8664 421.048 43.7752 421.598 41.6837C421.751 41.1025 421.751 41.1025 421.907 40.5095C422.095 39.7941 422.284 39.0786 422.472 38.3631C423.088 36.0208 423.724 33.6851 424.362 31.3482C431.259 31.3482 438.156 31.3482 445.263 31.3482C444.003 36.3859 444.003 36.3859 443.467 38.1457C443.345 38.5481 443.223 38.9504 443.097 39.3649C442.967 39.7905 442.837 40.2161 442.703 40.6546C442.486 41.3664 442.27 42.0783 442.054 42.7901C441.823 43.5503 441.591 44.3103 441.359 45.0702C440.867 46.6805 440.378 48.2913 439.888 49.9022C439.367 51.6184 438.845 53.3345 438.323 55.0505C436.545 60.8914 434.774 66.7342 433.005 72.5776C432.466 74.3578 431.927 76.1379 431.387 77.9178C430.961 79.3226 430.536 80.7275 430.11 82.1324C430.028 82.4037 429.946 82.675 429.861 82.9546C428.877 86.2063 427.902 89.4608 426.94 92.7193C426.845 93.0407 426.75 93.3622 426.652 93.6935C426.191 95.2525 425.731 96.812 425.273 98.3721C425.109 98.9297 424.944 99.4874 424.78 100.045C424.705 100.302 424.63 100.559 424.553 100.824C424.031 102.585 424.031 102.585 423.615 103C422.951 103.035 422.285 103.044 421.62 103.043C421.194 103.043 420.768 103.043 420.33 103.043C419.866 103.041 419.403 103.039 418.925 103.037C418.218 103.036 418.218 103.036 417.496 103.035C416.24 103.033 414.984 103.03 413.728 103.026C412.447 103.022 411.166 103.02 409.885 103.019C407.371 103.014 404.856 103.008 402.341 103C402.239 102.629 402.239 102.629 402.136 102.25C401.256 99.0404 400.375 95.8307 399.495 92.621C399.424 92.3625 399.354 92.104 399.281 91.8377C396.446 81.5012 393.609 71.1654 390.771 60.8301C390.033 62.746 389.38 64.6497 388.818 66.6265C388.742 66.8904 388.667 67.1544 388.589 67.4263C388.342 68.2924 388.096 69.159 387.851 70.0257C387.676 70.6406 387.5 71.2556 387.325 71.8705C386.863 73.4908 386.402 75.1114 385.942 76.7322C385.485 78.343 385.026 79.9534 384.567 81.5639C383.857 84.0567 383.147 86.5498 382.438 89.043C381.115 93.6967 379.785 98.3485 378.455 103C371.311 103 364.167 103 356.807 103C341.07 49.5634 341.07 49.5634 335.906 31.3482Z" fill="#B30111"/>
<path d="M309.405 0C316.426 0 323.446 0 330.68 0C330.68 33.99 330.68 67.98 330.68 103C323.659 103 316.639 103 309.405 103C309.282 99.4286 309.159 95.8572 309.032 92.1775C307.369 94.2095 307.369 94.2095 305.673 96.2826C301.148 100.875 295.482 103.105 289.05 103.175C288.647 103.171 288.244 103.167 287.828 103.163C287.403 103.16 286.978 103.157 286.54 103.154C278.962 103.002 272.853 100.18 267.604 94.7898C267.351 94.5358 267.097 94.2818 266.837 94.0201C260.878 87.6648 258.526 77.9203 258.273 69.413C258.258 68.9406 258.243 68.4682 258.228 67.9815C258.014 57.7263 259.79 46.9237 266.484 38.8116C266.722 38.5129 266.96 38.2141 267.206 37.9063C271.416 32.866 277.577 29.9699 284.026 29.1087C291.512 28.6828 298.74 29.5683 304.74 34.45C306.338 36.133 307.667 38.0545 309.032 39.9312C309.155 26.7539 309.279 13.5766 309.405 0ZM280.772 49.5393C276.002 55.3906 275.563 63.8651 276.279 71.0729C276.665 74.148 277.225 77.1547 278.801 79.8623C278.962 80.1485 279.123 80.4348 279.289 80.7297C280.958 83.4661 283.186 85.4972 286.312 86.4033C290.763 87.135 295.441 87.0703 299.207 84.3712C303.49 80.7863 305.453 76.0285 306.046 70.5326C306.411 63.2392 306.134 55.5419 301.226 49.6486C298.328 46.8154 295.193 45.5246 291.187 45.4124C287.109 45.4858 283.686 46.5792 280.772 49.5393Z" fill="#B30111"/>
<path d="M505.211 36.7033C512.847 43.4049 515.564 52.4827 516.548 62.322C516.548 65.4008 516.548 68.4796 516.548 71.6517C500.536 71.6517 484.525 71.6517 468.028 71.6517C469.743 79.6609 469.743 79.6609 475.119 85.0865C479.375 87.2709 484.87 87.777 489.512 86.5326C493.305 85.1275 496.042 82.4405 498.259 79.1154C499.746 79.3452 500.909 79.8147 502.247 80.4945C502.652 80.6991 503.058 80.9037 503.476 81.1145C503.902 81.3323 504.328 81.55 504.768 81.7744C505.202 81.9939 505.635 82.2133 506.082 82.4394C506.942 82.8742 507.801 83.3097 508.66 83.7462C510.119 84.4872 511.583 85.2196 513.049 85.9494C513.717 86.2838 514.386 86.6181 515.055 86.9524C512.865 93.1787 506.369 97.3635 500.709 100.131C490.721 104.531 477.817 104.348 467.701 100.457C458.903 96.7057 452.257 90.384 448.666 81.4945C445.075 71.426 445.257 59.4501 449.695 49.6551C451.205 46.4879 452.969 43.6565 455.338 41.0502C455.641 40.713 455.943 40.3758 456.255 40.0283C468.356 27.2202 491.504 25.303 505.211 36.7033ZM472.133 49.2604C470.091 51.9514 468.401 55.5362 468.401 58.9633C477.392 58.9633 486.383 58.9633 495.647 58.9633C495.097 54.0167 494.01 50.6096 490.492 47.0912C485.055 43.3604 476.481 44.2927 472.133 49.2604Z" fill="#B30111"/>
<path d="M242.225 37.6937C242.524 37.9343 242.824 38.1748 243.132 38.4226C249.855 44.0768 253.592 52.5798 254.542 61.2046C255.12 72.53 253.428 82.8205 245.771 91.5728C241.351 96.2358 236.41 99.4938 230.282 101.509C229.93 101.627 229.93 101.627 229.571 101.748C222.127 104.132 212.294 104.005 204.902 101.509C204.655 101.427 204.408 101.345 204.153 101.261C195.346 98.2476 188.621 92.113 184.458 83.8542C179.86 74.368 179.907 63.079 182.951 53.1344C184.629 48.4177 186.962 44.385 190.346 40.6792C190.715 40.2715 190.715 40.2715 191.091 39.8556C203.976 26.2985 228.214 25.8808 242.225 37.6937ZM206.356 51.2685C204.492 53.8497 203.531 56.9642 203.036 60.085C202.994 60.3304 202.953 60.5757 202.91 60.8285C201.908 68.0053 202.548 76.0748 206.87 82.1031C209.537 85.192 212.787 86.6825 216.826 87.0144C220.977 87.1857 224.562 85.9845 227.669 83.2227C232.293 78.4163 233.086 71.6017 233.025 65.2332C232.861 59.1297 231.532 53.4977 227.296 48.8894C226.412 48.1964 226.412 48.1964 225.476 47.6765C225.177 47.4976 224.878 47.3186 224.57 47.1342C218.115 44.0291 210.889 45.9985 206.356 51.2685Z" fill="#B30111"/>
<path d="M164.515 37.3372C172.044 43.9993 176.442 52.572 177.282 62.6966C177.917 73.63 175.223 83.5667 168.052 91.9948C162.335 98.2718 153.604 102.613 145.06 103.067C132.848 103.274 132.848 103.274 127.642 101.508C127.393 101.424 127.144 101.34 126.887 101.254C118.121 98.201 111.304 92.3014 107.122 84.0339C102.556 74.5143 102.181 62.939 105.622 52.9937C109.019 43.6917 115.191 37.1476 123.98 32.7482C136.92 27.042 153.429 28.2061 164.515 37.3372ZM129.229 50.7779C124.796 56.8964 124.734 65.3529 125.563 72.5729C126.294 76.8692 128.081 81.7151 131.748 84.3415C135.278 86.5264 139.1 87.5211 143.218 86.7672C147.136 85.8161 150.358 83.8251 152.523 80.3632C156.437 73.0486 156.418 63.8518 154.235 55.9792C152.908 52.0751 150.509 48.9237 146.878 46.8783C140.852 44.2999 133.483 45.7711 129.229 50.7779Z" fill="#B30111"/>
<path d="M558.738 0C565.759 0 572.779 0 580.012 0C580.012 33.99 580.012 67.98 580.012 103C572.992 103 565.971 103 558.738 103C558.738 69.01 558.738 35.02 558.738 0Z" fill="#B30111"/>
<path d="M524.387 0C531.407 0 538.428 0 545.661 0C545.661 33.99 545.661 67.98 545.661 103C538.64 103 531.62 103 524.387 103C524.387 69.01 524.387 35.02 524.387 0Z" fill="#B30111"/>
</g>
<defs>
<clipPath id="clip0_1132_71">
<rect width="580" height="103" fill="white"/>
</clipPath>
</defs>
</svg>
