<svg width="966" height="632" viewBox="0 0 966 632" fill="none" xmlns="http://www.w3.org/2000/svg">
<path d="M842.699 259.333L844.523 257.981L847.731 256.607L853.025 259.252L857.657 262.583L858.781 264.117L858.559 265.894L847.511 272.374L840.652 275.402L837.624 275.948L836.803 276.795L834.637 284.164L830.386 285.476L824.931 287.717L821.121 291.109L815.046 299.103L799.605 310.711L799.385 313.073L800.729 314.991L805.742 316.323L812.359 319.876L815.948 322.662L825.754 319.069L828.181 319.856L830.747 323.571L833.455 333.947L837.846 336.773L843.601 338.933L847.169 339.64L851.922 342.184L858.259 343.133L862.51 342.204L867.824 344.385L868.686 343.435L869.388 327.971L873.839 330.555L876.406 330.515L878.652 328.618L879.814 326.054L880.577 320.946L879.594 315.839L881.579 313.497L883.124 312.972L884.267 313.598L884.949 314.91L885.149 319.533L888.357 321.491L890.323 322.622L892.187 326.538L894.012 330.273L895.176 339.014L899.687 339.62L904.98 341.295L908.53 339.66L911.277 340.629L912.22 344.768L912.2 348.624L912.6 351.693L914.024 352.561L918.636 350.643L922.506 350.38L926.075 352.217L930.507 355.003L936.943 362.311L939.069 363.361L948.775 363.926L950.8 365.42H954.128L957.739 364.108L965.739 366.47L966 367.802L964.656 369.639L945.587 379.733L944.183 382.842L940.293 386.778L936.041 389.02L933.977 389.1L924.652 385.103L923.569 386.072L922.807 387.687L922.847 389.444L924.893 393.642L923.951 396.287L922.165 398.205L916.331 396.529L915.247 395.46L915.128 394.289H912.882L909.412 395.46L902.734 402.707L900.409 406.502L899.546 408.783L896.578 410.076L893.351 410.56L889.18 413.972L884.648 416.616L883.203 414.678L882.321 412.518L881.118 411.831L878.331 412.337L874.962 412.417L871.412 409.975L866.822 407.512L862.811 406.643L850.979 407.794L845.124 409.006L843.28 410.196L839.991 410.52L826.134 413.003L823.307 412.034L821.222 408.117L819.397 403.878L815.808 402.344L811.777 401.152L810.274 399.457L810.174 397.397L810.595 395.379L810.915 394.329L820.26 386.214L828.681 378.906L829.463 378.32L830.226 376.927L831.649 374.404V373.092L825.352 370.184L825.112 368.852L826.376 367.479V365.642L821.924 360.272L814.223 351.894L811.998 351.026L810.354 351.571L807.346 359.666L805.842 361.725L797.06 367.035L789.72 370.689L776.646 377.169L773.236 379.208L770.871 378.845L768.505 377.573L761.165 371.012L756.434 368.771L753.245 370.992L750.558 374.222L750.818 380.863L747.79 384.356L744.763 385.931L750.277 403.676L749.735 405.957L745.525 406.583L748.613 413.245L746.006 414.012L739.369 412.457L730.445 411.428L713.601 414.375L712.359 415.526L711.897 417L712.88 418.332L721.041 418.473L729.022 417.807L731.227 419.039L731.568 421.219L730.646 422.592L727.979 422.834L722.144 424.146L721.482 425.539L721.281 426.872L723.266 430.727L725.473 433.19L725.753 434.644L724.83 435.875L723.708 436.36L721.742 434.543L720.62 434.906L720.078 436.562L719.537 438.5L718.253 439.913L715.526 439.166L712.819 439.711L711.216 446.736L709.852 454.691L705.4 459.98L702.933 461.898L699.305 462.463L693.91 461.817L690.642 461.029L681.176 459.859L671.692 457.698L661.025 455.68L651.098 460.343L648.231 463.189L646.407 465.855L644.541 467.086L640.23 483.398L640.671 485.255L643.057 486.708L655.23 490.08L657.014 491.473L658.076 493.068L658.598 500.376L659.6 501.385L663.771 502.293L669.807 502.233L674.539 501.506L679.291 502.172L682.62 503.747L684.245 506.23L685.148 508.915L679.492 524.924L679.954 530.738L681.698 539.055L684.907 545.576L690.942 551.935L695.534 556.013L696.497 557.931L696.737 560.898L695.995 564.694L693.349 570.71L690.1 575.959L686.591 578.18L681.718 584.841L677.407 593.017L669.126 603.717L666.338 609.673L665.416 626.852L663.23 632L662.889 630.042L659.901 628.084L654.687 628.427L651.259 627.498L649.614 625.298L645.364 625.924L638.505 629.335L631.507 627.519L624.389 620.453L610.813 617.869L593.629 619.484L592.987 611.651L593.026 601.658L593.808 588.354L599.665 577.897L599.484 575.898L598.341 573.98L596.556 572.265L586.149 569.378L583.101 567.863L579.07 564.552L573.978 561.08L569.546 558.678L562.587 555.508L556.171 553.753L552.4 555.084L548.932 556.781L545.684 556.821L542.435 555.892L530.403 547.958L512.236 534.231L497.839 524.621L488.795 520.018L486.649 518.545L481.576 514.225L469.103 502.556L460.822 504.272L448.991 496.681L438.364 489.252L435.958 487.233L423.866 473.465L411.794 464.522L398.64 454.751L390.138 448.614L375.72 438.197L368.662 431.899L366.275 429.577L363.95 425.115L360.179 403.252L355.848 393.199L349.672 387.727L344.419 377.169L340.047 361.483L336.438 351.268L333.57 346.544L327.795 341.316L319.032 335.583L310.73 332.857L307.742 332.958L306.259 333.665L304.575 334.634L301.286 338.913L296.434 339.357L292.864 339.257L289.536 337.722L279.027 336.37L275.298 334.876L268.982 335.098L255.406 337.319L252.098 336.915L237.76 327.345L231.524 323.55L230.281 321.451L230.341 317.776L232.446 312.568L234.251 308.874L233.45 305.038L230.721 300.839V296.358L232.587 293.854L236.397 294.641L237.76 293.067L237.279 290.685L235.213 288.989L232.467 285.173L224.345 281.62L223.182 280.167L223.603 278.512L225.007 276.735L225.287 272.98L225.428 268.135L226.511 265.611L226.811 263.633L225.629 262.038L222.881 260.181L218.49 255.679L213.096 255.195L195.55 255.356L190.116 253.539L185.745 251.016L181.373 241.406L179.167 239.125L177.101 238.176L172.189 237.853L166.274 236.925L163.246 235.289L154.984 226.487L147.044 218.614L143.855 226.044L140.768 227.517L133.769 226.831L128.515 225.579L125.528 227.255L122.44 230.182L123.021 232.12L125.387 234.159L130.139 237.934L137.419 247.16L140.727 252.247L141.208 254.024L140.586 255.356L139.604 255.921L138.161 255.901L136.216 255.881L135.092 254.367L134.712 251.742L132.285 247.765L129.778 245.464L127.032 244.031L123.181 242.961L118.108 241.063L115.481 240.982L112.935 243.183L110.809 246.15L109.546 252.631L105.756 260.585L103.43 263.714L96.2104 265.611L79.0857 266.257L73.9735 268.741L70.4841 271.729L64.0073 281.398L59.4948 284.608L55.5844 289.029L56.7679 303.201L58.6527 319.694L61.9414 324.257L64.0269 325.63L64.3071 327.245L62.9645 328.678L61.2401 330.475L58.6332 333.766L55.7056 333.644L49.8101 332.817L44.8974 331.929L28.3736 330.98L14.9793 330.212L0.100359 329.364L0.0807771 312.084V294.742V277.34L0.0599709 259.878V242.335V224.731L0.0403886 207.067V189.342V171.556V153.69L0.0195823 135.763V117.756V99.6675L0 81.5183V63.3094V45.0191L7.01782 42.758L15.8813 39.8711L24.3837 37.1258L34.5102 33.8347L45.9193 30.1203L55.6652 26.9512L67.2959 23.1758L76.1581 20.2889L84.4806 17.5836L95.1285 14.3535L111.691 9.34722L120.936 6.54096L130.28 3.71498L139.183 1.00976L145.138 0L151.535 3.85607L159.316 9.14514L167.096 14.4342L174.876 19.7239L182.657 25.013L190.437 30.2817L198.217 35.5511L205.998 40.8198L213.778 46.0689L221.558 51.3179L229.338 56.5663L237.119 61.795L244.899 67.0237L252.679 72.2524L260.46 77.4608L268.24 82.6692L276.02 87.8775L283.239 92.723L286.487 96.316L288.271 104.23L291.861 110.508L298.098 117.291L304.475 124.236L312.415 133.381L317.909 139.72L323.504 146.18L332.767 156.819L338.543 163.441L343.135 163.663L352.46 162.088L364.931 159.989L374.778 158.313L386.689 156.294L398.038 154.376L406.982 152.842L420.376 153.993L433.591 155.143L443.076 155.971L452.36 156.779L463.368 157.728L469.524 158.253L476.584 158.858L479.55 157.263L485.627 153.993L491.362 150.924L497.318 147.715L502.591 146.099L508.086 151.207L512.678 157.102L517.51 163.3L523.104 169.255L528.538 172.788L535.818 177.573L540.008 185.728L545.603 196.609L549.293 203.756L553.082 211.084L558.597 208.197L564.473 205.108L569.807 202.302L569.164 211.367L568.604 219.583L567.7 231.999L566.979 242.133L565.054 254.205L564.914 263.39L564.794 271.446L564.713 277.825L575.04 278.107L582.68 278.31L592.244 278.572L593.167 286.566L594.451 297.791L596.396 307.925L598.039 316.424L600.486 327.386L601.81 333.241L604.095 340.125L606.362 341.78L609.991 342.87L622.624 342.042L633.092 341.356L641.353 340.831L650.136 340.266L661.786 339.499L665.737 341.255L669.145 340.024L673.075 338.792L676.204 343.779L677.788 346.302L680.014 348.926L683.022 351.369L681.759 356.477L679.894 363.926L679.372 367.741L683.001 371.86L685.708 374.262L693.108 379.148L700.066 381.873L704.598 382.68L708.929 381.631L710.513 378.865L710.113 375.049L708.027 371.032L708.188 366.247L709.571 362.755L714.002 356.396L718.193 350.38L724.61 344.243L732.251 338.166L735.418 333.725L736.642 325.993L741.634 321.612L747.029 318.988L753.726 316.707L755.571 312.831L764.815 306.25L770.349 302.999L777.347 301.102L787.013 296.822L794.653 291.775L801.972 282.266L807.787 276.028L812.68 272.192L816.79 272.051L819.678 275.16L822.164 275.423L823.788 274.009L826.555 270.012L829.523 265.349L832.311 263.411L837.705 262.421L842.699 259.333ZM826.134 358.375L825.935 356.558L824.19 353.509L821.583 351.793L820.339 352.54L821.403 355.023L824.431 358.556L826.134 358.375ZM857.296 435.755L854.469 436.421L849.295 436.32L846.347 435.553L848.152 429.577L848.212 428.386L847.992 428.224L846.509 427.417L844.263 424.974L843.481 421.36L844.362 418.009L846.007 416.616L847.05 416.859L850.218 421.966L853.045 423.46L858.559 424.308L855.772 429.355L857.838 434.745L857.296 435.755ZM889.56 431.515L888.056 434.684L885.41 433.917L883.325 431.818L884.006 430.162L887.114 429.254L888.738 428.346L890.101 428.184L889.56 431.515Z" fill="#DD0802"/>
<path d="M633.001 367.833C631.454 367.833 629.97 367.219 628.877 366.125C627.783 365.031 627.168 363.547 627.168 362C627.168 360.453 627.783 358.969 628.877 357.875C629.97 356.781 631.454 356.167 633.001 356.167C634.548 356.167 636.032 356.781 637.126 357.875C638.22 358.969 638.835 360.453 638.835 362C638.835 362.766 638.684 363.524 638.391 364.232C638.097 364.94 637.668 365.583 637.126 366.125C636.584 366.666 635.941 367.096 635.234 367.389C634.526 367.682 633.767 367.833 633.001 367.833ZM633.001 345.667C628.669 345.667 624.515 347.387 621.452 350.45C618.389 353.514 616.668 357.668 616.668 362C616.668 374.25 633.001 392.333 633.001 392.333C633.001 392.333 649.335 374.25 649.335 362C649.335 357.668 647.614 353.514 644.551 350.45C641.488 347.387 637.333 345.667 633.001 345.667Z" fill="white"/>
<path d="M483.001 259.833C481.454 259.833 479.97 259.219 478.877 258.125C477.783 257.031 477.168 255.547 477.168 254C477.168 252.453 477.783 250.969 478.877 249.875C479.97 248.781 481.454 248.167 483.001 248.167C484.548 248.167 486.032 248.781 487.126 249.875C488.22 250.969 488.835 252.453 488.835 254C488.835 254.766 488.684 255.524 488.391 256.232C488.097 256.94 487.668 257.583 487.126 258.125C486.584 258.666 485.941 259.096 485.234 259.389C484.526 259.682 483.767 259.833 483.001 259.833ZM483.001 237.667C478.669 237.667 474.515 239.387 471.452 242.45C468.389 245.514 466.668 249.668 466.668 254C466.668 266.25 483.001 284.333 483.001 284.333C483.001 284.333 499.335 266.25 499.335 254C499.335 249.668 497.614 245.514 494.551 242.45C491.488 239.387 487.333 237.667 483.001 237.667Z" fill="white"/>
<path d="M390.001 194.833C388.454 194.833 386.97 194.219 385.877 193.125C384.783 192.031 384.168 190.547 384.168 189C384.168 187.453 384.783 185.969 385.877 184.875C386.97 183.781 388.454 183.167 390.001 183.167C391.548 183.167 393.032 183.781 394.126 184.875C395.22 185.969 395.835 187.453 395.835 189C395.835 189.766 395.684 190.524 395.391 191.232C395.097 191.94 394.668 192.583 394.126 193.125C393.584 193.666 392.941 194.096 392.234 194.389C391.526 194.682 390.767 194.833 390.001 194.833ZM390.001 172.667C385.669 172.667 381.515 174.387 378.452 177.45C375.389 180.514 373.668 184.668 373.668 189C373.668 201.25 390.001 219.333 390.001 219.333C390.001 219.333 406.335 201.25 406.335 189C406.335 184.668 404.614 180.514 401.551 177.45C398.488 174.387 394.333 172.667 390.001 172.667Z" fill="white"/>
<path d="M202.001 152.833C200.454 152.833 198.97 152.219 197.877 151.125C196.783 150.031 196.168 148.547 196.168 147C196.168 145.453 196.783 143.969 197.877 142.875C198.97 141.781 200.454 141.167 202.001 141.167C203.548 141.167 205.032 141.781 206.126 142.875C207.22 143.969 207.835 145.453 207.835 147C207.835 147.766 207.684 148.524 207.391 149.232C207.097 149.94 206.668 150.583 206.126 151.125C205.584 151.666 204.941 152.096 204.234 152.389C203.526 152.682 202.767 152.833 202.001 152.833ZM202.001 130.667C197.669 130.667 193.515 132.387 190.452 135.45C187.389 138.514 185.668 142.668 185.668 147C185.668 159.25 202.001 177.333 202.001 177.333C202.001 177.333 218.335 159.25 218.335 147C218.335 142.668 216.614 138.514 213.551 135.45C210.488 132.387 206.333 130.667 202.001 130.667Z" fill="white"/>
<path d="M366.001 295.833C364.454 295.833 362.97 295.219 361.877 294.125C360.783 293.031 360.168 291.547 360.168 290C360.168 288.453 360.783 286.969 361.877 285.875C362.97 284.781 364.454 284.167 366.001 284.167C367.548 284.167 369.032 284.781 370.126 285.875C371.22 286.969 371.835 288.453 371.835 290C371.835 290.766 371.684 291.524 371.391 292.232C371.097 292.94 370.668 293.583 370.126 294.125C369.584 294.666 368.941 295.096 368.234 295.389C367.526 295.682 366.767 295.833 366.001 295.833ZM366.001 273.667C361.669 273.667 357.515 275.387 354.452 278.45C351.389 281.514 349.668 285.668 349.668 290C349.668 302.25 366.001 320.333 366.001 320.333C366.001 320.333 382.335 302.25 382.335 290C382.335 285.668 380.614 281.514 377.551 278.45C374.488 275.387 370.333 273.667 366.001 273.667Z" fill="white"/>
<path d="M34.0013 138.833C32.4542 138.833 30.9705 138.219 29.8765 137.125C28.7826 136.031 28.168 134.547 28.168 133C28.168 131.453 28.7826 129.969 29.8765 128.875C30.9705 127.781 32.4542 127.167 34.0013 127.167C35.5484 127.167 37.0321 127.781 38.1261 128.875C39.2201 129.969 39.8346 131.453 39.8346 133C39.8346 133.766 39.6838 134.524 39.3906 135.232C39.0974 135.94 38.6678 136.583 38.1261 137.125C37.5844 137.666 36.9414 138.096 36.2336 138.389C35.5259 138.682 34.7673 138.833 34.0013 138.833ZM34.0013 116.667C29.6694 116.667 25.515 118.387 22.4519 121.45C19.3888 124.514 17.668 128.668 17.668 133C17.668 145.25 34.0013 163.333 34.0013 163.333C34.0013 163.333 50.3346 145.25 50.3346 133C50.3346 128.668 48.6138 124.514 45.5507 121.45C42.4876 118.387 38.3332 116.667 34.0013 116.667Z" fill="white"/>
<path d="M772.001 324.833C770.454 324.833 768.97 324.219 767.877 323.125C766.783 322.031 766.168 320.547 766.168 319C766.168 317.453 766.783 315.969 767.877 314.875C768.97 313.781 770.454 313.167 772.001 313.167C773.548 313.167 775.032 313.781 776.126 314.875C777.22 315.969 777.835 317.453 777.835 319C777.835 319.766 777.684 320.524 777.391 321.232C777.097 321.94 776.668 322.583 776.126 323.125C775.584 323.666 774.941 324.096 774.234 324.389C773.526 324.682 772.767 324.833 772.001 324.833ZM772.001 302.667C767.669 302.667 763.515 304.387 760.452 307.45C757.389 310.514 755.668 314.668 755.668 319C755.668 331.25 772.001 349.333 772.001 349.333C772.001 349.333 788.335 331.25 788.335 319C788.335 314.668 786.614 310.514 783.551 307.45C780.488 304.387 776.333 302.667 772.001 302.667Z" fill="white"/>
<path d="M603.001 442.833C601.454 442.833 599.97 442.219 598.877 441.125C597.783 440.031 597.168 438.547 597.168 437C597.168 435.453 597.783 433.969 598.877 432.875C599.97 431.781 601.454 431.167 603.001 431.167C604.548 431.167 606.032 431.781 607.126 432.875C608.22 433.969 608.835 435.453 608.835 437C608.835 437.766 608.684 438.524 608.391 439.232C608.097 439.94 607.668 440.583 607.126 441.125C606.584 441.666 605.941 442.096 605.234 442.389C604.526 442.682 603.767 442.833 603.001 442.833ZM603.001 420.667C598.669 420.667 594.515 422.387 591.452 425.45C588.389 428.514 586.668 432.668 586.668 437C586.668 449.25 603.001 467.333 603.001 467.333C603.001 467.333 619.335 449.25 619.335 437C619.335 432.668 617.614 428.514 614.551 425.45C611.488 422.387 607.333 420.667 603.001 420.667Z" fill="white"/>
<path d="M631.001 551.833C629.454 551.833 627.97 551.219 626.877 550.125C625.783 549.031 625.168 547.547 625.168 546C625.168 544.453 625.783 542.969 626.877 541.875C627.97 540.781 629.454 540.167 631.001 540.167C632.548 540.167 634.032 540.781 635.126 541.875C636.22 542.969 636.835 544.453 636.835 546C636.835 546.766 636.684 547.524 636.391 548.232C636.097 548.94 635.668 549.583 635.126 550.125C634.584 550.666 633.941 551.096 633.234 551.389C632.526 551.682 631.767 551.833 631.001 551.833ZM631.001 529.667C626.669 529.667 622.515 531.387 619.452 534.45C616.389 537.514 614.668 541.668 614.668 546C614.668 558.25 631.001 576.333 631.001 576.333C631.001 576.333 647.335 558.25 647.335 546C647.335 541.668 645.614 537.514 642.551 534.45C639.488 531.387 635.333 529.667 631.001 529.667Z" fill="white"/>
<path d="M547.001 500.833C545.454 500.833 543.97 500.219 542.877 499.125C541.783 498.031 541.168 496.547 541.168 495C541.168 493.453 541.783 491.969 542.877 490.875C543.97 489.781 545.454 489.167 547.001 489.167C548.548 489.167 550.032 489.781 551.126 490.875C552.22 491.969 552.835 493.453 552.835 495C552.835 495.766 552.684 496.524 552.391 497.232C552.097 497.94 551.668 498.583 551.126 499.125C550.584 499.666 549.941 500.096 549.234 500.389C548.526 500.682 547.767 500.833 547.001 500.833ZM547.001 478.667C542.669 478.667 538.515 480.387 535.452 483.45C532.389 486.514 530.668 490.668 530.668 495C530.668 507.25 547.001 525.333 547.001 525.333C547.001 525.333 563.335 507.25 563.335 495C563.335 490.668 561.614 486.514 558.551 483.45C555.488 480.387 551.333 478.667 547.001 478.667Z" fill="white"/>
<path d="M455.001 442.833C453.454 442.833 451.97 442.219 450.877 441.125C449.783 440.031 449.168 438.547 449.168 437C449.168 435.453 449.783 433.969 450.877 432.875C451.97 431.781 453.454 431.167 455.001 431.167C456.548 431.167 458.032 431.781 459.126 432.875C460.22 433.969 460.835 435.453 460.835 437C460.835 437.766 460.684 438.524 460.391 439.232C460.097 439.94 459.668 440.583 459.126 441.125C458.584 441.666 457.941 442.096 457.234 442.389C456.526 442.682 455.767 442.833 455.001 442.833ZM455.001 420.667C450.669 420.667 446.515 422.387 443.452 425.45C440.389 428.514 438.668 432.668 438.668 437C438.668 449.25 455.001 467.333 455.001 467.333C455.001 467.333 471.335 449.25 471.335 437C471.335 432.668 469.614 428.514 466.551 425.45C463.488 422.387 459.333 420.667 455.001 420.667Z" fill="white"/>
</svg>
