<svg width="80" height="80" viewBox="0 0 80 80" fill="none" xmlns="http://www.w3.org/2000/svg">
<path d="M75.9056 34.4534L8.82557 0.913441C7.92062 0.494172 6.92518 0.307898 5.92987 0.371578C4.93455 0.435257 3.97096 0.746867 3.12683 1.27804C2.28269 1.80922 1.58481 2.54309 1.09672 3.41284C0.608628 4.2826 0.345825 5.26063 0.332234 6.25789V73.309C0.323783 74.3327 0.579551 75.3412 1.07482 76.2372C1.57009 77.1332 2.2881 77.8862 3.15947 78.4235C4.03084 78.9609 5.02609 79.2644 6.04902 79.3046C7.07196 79.3449 8.08798 79.1206 8.9989 78.6534L75.9056 45.1134C76.8967 44.6159 77.7299 43.8526 78.3122 42.9088C78.8944 41.9651 79.2028 40.8779 79.2028 39.769C79.2028 38.66 78.8944 37.5729 78.3122 36.6291C77.7299 35.6854 76.8967 34.9221 75.9056 34.4246V34.4534Z" fill="white"/>
</svg>
