<svg width="30" height="30" viewBox="0 0 30 30" fill="none" xmlns="http://www.w3.org/2000/svg">
<g clip-path="url(#clip0_420_363)">
<path d="M9.3375 26.875C5.25 24.925 2.325 20.95 1.875 16.25H0C0.625 23.95 7.075 30 14.9375 30L15.7625 29.9625L11 25.2L9.3375 26.875ZM10.45 18.7C10.2125 18.7 10 18.6625 9.8 18.6C9.6133 18.538 9.44258 18.4356 9.3 18.3C9.1625 18.175 9.05 18.025 8.975 17.8375C8.9 17.6625 8.8625 17.4625 8.8625 17.25H7.2375C7.2375 17.7 7.325 18.125 7.5 18.4375C7.675 18.75 7.9125 19.0625 8.2 19.3C8.5 19.525 8.8375 19.7 9.225 19.8125C9.6 19.9375 10 20 10.425 20C10.8875 20 11.325 19.9375 11.7125 19.8125C12.1125 19.6875 12.4625 19.5 12.75 19.2625C13.0375 19.025 13.275 18.75 13.4375 18.3625C13.6 18 13.6875 17.6 13.6875 17.15C13.6875 16.9125 13.6625 16.675 13.6 16.45C13.5375 16.25 13.45 16.0125 13.3125 15.8125C13.1875 15.625 13.0125 15.4375 12.8125 15.275C12.6 15.1125 12.35 15 12.05 14.8875C12.503 14.688 12.8891 14.3626 13.1625 13.95C13.2875 13.75 13.375 13.575 13.4375 13.375C13.5 13.175 13.525 12.975 13.525 12.775C13.525 12.325 13.45 11.925 13.3 11.575C13.125 11.25 12.9375 10.9375 12.6625 10.7125C12.4125 10.475 12.075 10.3 11.7 10.175C11.3125 10.0625 10.8875 10 10.425 10C10 10 9.5625 10.0625 9.175 10.2C8.8 10.3375 8.4625 10.525 8.1875 10.7625C7.925 11 7.7125 11.25 7.55 11.6C7.4 11.925 7.325 12.275 7.325 12.6625H8.95C8.95 12.45 8.9875 12.2625 9.0625 12.1C9.13311 11.9365 9.23997 11.7912 9.375 11.675C9.5125 11.5625 9.6625 11.4625 9.85 11.4C10.0375 11.3375 10.225 11.3 10.45 11.3C10.95 11.3 11.325 11.425 11.5625 11.6875C11.8 11.9375 11.925 12.3 11.925 12.7625C11.925 12.9875 11.875 13.1875 11.825 13.375C11.7628 13.5537 11.6551 13.7131 11.5125 13.8375C11.375 13.9625 11.2 14.0625 11 14.1375C10.8 14.2125 10.55 14.25 10.275 14.25H9.3125V15.5375H10.275C10.55 15.5375 10.8 15.5625 11.025 15.625C11.25 15.6875 11.4375 15.7875 11.5875 15.9125C11.7375 16.05 11.875 16.2125 11.95 16.4125C12.0375 16.6125 12.075 16.875 12.075 17.125C12.075 17.6375 11.925 18.025 11.6375 18.2875C11.35 18.575 10.95 18.7 10.45 18.7ZM21.1375 11.3C20.7375 10.8875 20.2625 10.5625 19.7125 10.3375C19.175 10.1125 18.5625 10 17.8875 10H14.9375V20H17.8125C18.5 20 19.1375 19.8875 19.7 19.6625C20.2625 19.4375 20.75 19.125 21.15 18.7125C21.55 18.3 21.875 17.8 22.075 17.225C22.2875 16.6375 22.4 15.9875 22.4 15.2625V14.7625C22.4 14.0375 22.2875 13.3875 22.075 12.8C21.875 12.2125 21.5375 11.7125 21.1375 11.3ZM20.625 15.25C20.625 15.775 20.5875 16.25 20.475 16.6625C20.35 17.075 20.175 17.4375 19.9375 17.725C19.7 18.0125 19.375 18.2375 19.05 18.3875C18.6875 18.5375 18.275 18.6125 17.8125 18.6125H16.675V11.4H17.8875C18.7875 11.4 19.475 11.6875 19.9375 12.2625C20.4125 12.8375 20.625 13.6625 20.625 14.75M14.9375 0L14.1125 0.0375L18.875 4.8L20.5375 3.125C24.625 5.075 27.55 9.0375 27.9875 13.75H29.8625C29.2375 6.05 22.8 0 14.9375 0Z" fill="white"/>
</g>
<defs>
<clipPath id="clip0_420_363">
<rect width="30" height="30" fill="white"/>
</clipPath>
</defs>
</svg>
