<svg width="24" height="24" viewBox="0 0 24 24" fill="none" xmlns="http://www.w3.org/2000/svg">
<g clip-path="url(#clip0_1042_1292)">
<path fill-rule="evenodd" clip-rule="evenodd" d="M13.5007 2C14.8561 2.00012 16.1919 2.32436 17.3965 2.94569C18.6011 3.56702 19.6396 4.46742 20.4255 5.57175C21.2113 6.67609 21.7217 7.95235 21.914 9.29404C22.1063 10.6357 21.975 12.004 21.5309 13.2846C21.0869 14.5652 20.3431 15.7211 19.3615 16.6557C18.3799 17.5904 17.189 18.2768 15.8882 18.6576C14.5874 19.0384 13.2144 19.1026 11.8837 18.8449C10.553 18.5872 9.30328 18.015 8.23872 17.176L4.58672 20.828C4.39812 21.0102 4.14552 21.111 3.88332 21.1087C3.62112 21.1064 3.37031 21.0012 3.1849 20.8158C2.9995 20.6304 2.89433 20.3796 2.89205 20.1174C2.88977 19.8552 2.99057 19.6026 3.17272 19.414L6.82472 15.762C5.83673 14.5086 5.22156 13.0024 5.04962 11.4157C4.87769 9.82905 5.15593 8.22602 5.8525 6.79009C6.54907 5.35417 7.63584 4.14336 8.98842 3.29623C10.341 2.44911 11.9048 1.99989 13.5007 2ZM20.0007 10.5C20.0007 8.77609 19.3159 7.12279 18.0969 5.90381C16.8779 4.68482 15.2246 4 13.5007 4C11.7768 4 10.1235 4.68482 8.90453 5.90381C7.68554 7.12279 7.00072 8.77609 7.00072 10.5C7.00072 12.2239 7.68554 13.8772 8.90453 15.0962C10.1235 16.3152 11.7768 17 13.5007 17C15.2246 17 16.8779 16.3152 18.0969 15.0962C19.3159 13.8772 20.0007 12.2239 20.0007 10.5Z" fill="#222222"/>
</g>
<defs>
<clipPath id="clip0_1042_1292">
<rect width="24" height="24" fill="white" transform="matrix(-1 0 0 1 24 0)"/>
</clipPath>
</defs>
</svg>
