<svg width="24" height="24" viewBox="0 0 24 24" fill="none" xmlns="http://www.w3.org/2000/svg">
<path d="M23.7873 9.83747C23.93 10.6429 24.0012 11.4589 24 12.2764C24 15.9273 22.6687 19.0142 20.3519 21.1036H20.355C18.329 22.938 15.544 24 12.2418 24C8.99505 24 5.88131 22.7358 3.58553 20.4854C1.28975 18.235 0 15.1829 0 12.0004C0 8.8179 1.28975 5.76576 3.58553 3.51539C5.88131 1.26503 8.99505 0.000791804 12.2418 0.000791804C15.2807 -0.0340946 18.2155 1.08501 20.4315 3.12369L16.9365 6.54958C15.6731 5.36908 13.987 4.72262 12.2418 4.74963C9.0482 4.74963 6.33511 6.86157 5.36802 9.70547C4.85525 11.1957 4.85525 12.8096 5.36802 14.2998H5.37261C6.3443 17.1392 9.05279 19.2512 12.2464 19.2512C13.8959 19.2512 15.3129 18.8372 16.4116 18.1052H16.407C17.045 17.6909 17.5907 17.1542 18.0112 16.5275C18.4318 15.9008 18.7184 15.1971 18.8539 14.4588H12.2418V9.83897L23.7873 9.83747Z" fill="white"/>
</svg>
