<svg width="24" height="24" viewBox="0 0 24 24" fill="none" xmlns="http://www.w3.org/2000/svg">
<path d="M20.7106 3.65451C20.7106 3.65451 22.6531 2.89701 22.4906 4.73651C22.4371 5.49401 21.9516 8.14551 21.5736 11.013L20.2786 19.508C20.2786 19.508 20.1706 20.7525 19.1991 20.969C18.2281 21.185 16.7711 20.2115 16.5011 19.995C16.2851 19.8325 12.4541 17.3975 11.1051 16.2075C10.7271 15.8825 10.2951 15.2335 11.1591 14.476L16.8246 9.06501C17.4721 8.41601 18.1196 6.90101 15.4216 8.74051L7.86665 13.8805C7.86665 13.8805 7.00315 14.422 5.38465 13.935L1.87665 12.8525C1.87665 12.8525 0.581647 12.041 2.79415 11.2295C8.19065 8.68651 14.8281 6.08951 20.7096 3.65451H20.7106Z" fill="white"/>
</svg>
