<svg width="12" height="12" viewBox="0 0 12 12" fill="none" xmlns="http://www.w3.org/2000/svg">
<path d="M6.71 11.7102C6.80373 11.6172 6.87812 11.5066 6.92889 11.3848C6.97966 11.2629 7.0058 11.1322 7.0058 11.0002C7.0058 10.8682 6.97966 10.7375 6.92889 10.6156C6.87812 10.4937 6.80373 10.3831 6.71 10.2902L3.41 7.00019L11 7.00019C11.2652 7.00019 11.5196 6.89483 11.7071 6.70729C11.8946 6.51976 12 6.2654 12 6.00019C12 5.73497 11.8946 5.48062 11.7071 5.29308C11.5196 5.10554 11.2652 5.00019 11 5.00019L3.41 5.00019L6.71 1.71019C6.8983 1.52188 7.00409 1.26649 7.00409 1.00019C7.00409 0.733884 6.8983 0.478489 6.71 0.290185C6.5217 0.101882 6.2663 -0.0039065 6 -0.00390651C5.7337 -0.00390652 5.4783 0.101881 5.29 0.290185L0.290001 5.29018C0.19896 5.38529 0.127594 5.49743 0.0799997 5.62018C0.0270945 5.73989 -0.000232953 5.86931 -0.000232959 6.00018C-0.000232965 6.13106 0.0270944 6.26048 0.0799996 6.38019C0.127594 6.50294 0.19896 6.61508 0.290001 6.71019L5.29 11.7102C5.38296 11.8039 5.49356 11.8783 5.61542 11.9291C5.73728 11.9798 5.86799 12.006 6 12.006C6.13201 12.006 6.26272 11.9798 6.38458 11.9291C6.50644 11.8783 6.61704 11.8039 6.71 11.7102Z" fill="white"/>
</svg>
