<svg width="220" height="64" viewBox="0 0 220 64" fill="none" xmlns="http://www.w3.org/2000/svg">
<rect width="220" height="64" rx="32" fill="#A81818"/>
<circle cx="33.5" cy="32.5" r="26.5" fill="#F9F4E7"/>
<path d="M45.152 28.0538C47.7776 29.6011 47.7776 33.3989 45.152 34.9462L29.0308 44.4462C26.3643 46.0175 23 44.0951 23 41L23 22C23 18.9049 26.3643 16.9825 29.0308 18.5538L45.152 28.0538Z" fill="#A81818"/>
<path d="M87.6602 36.6914V33.7969H82.1875C81.8672 33.7969 81.5664 33.7383 81.2852 33.6211C81.0039 33.4961 80.7578 33.332 80.5469 33.1289C80.3438 32.918 80.1797 32.6719 80.0547 32.3906C79.9375 32.1094 79.8789 31.8086 79.8789 31.4883V28.8281C79.8789 28.5078 79.9375 28.207 80.0547 27.9258C80.1797 27.6445 80.3438 27.4023 80.5469 27.1992C80.7578 26.9883 81.0039 26.8242 81.2852 26.707C81.5664 26.582 81.8672 26.5195 82.1875 26.5195H89.4883V28.8281H82.1875V31.4883H87.6602C87.9805 31.4883 88.2773 31.5508 88.5508 31.6758C88.832 31.793 89.0781 31.957 89.2891 32.168C89.5 32.3711 89.6641 32.6133 89.7812 32.8945C89.9062 33.1758 89.9688 33.4766 89.9688 33.7969V36.6914C89.9688 37.0117 89.9062 37.3125 89.7812 37.5938C89.6641 37.875 89.5 38.1211 89.2891 38.332C89.0781 38.5352 88.832 38.6992 88.5508 38.8242C88.2773 38.9414 87.9805 39 87.6602 39H79.8789V36.6914H87.6602ZM104.617 39H102.309V28.8281H95.875V39H93.5781V21.7148H95.875V28.7227C95.8906 28.418 95.9609 28.1328 96.0859 27.8672C96.2109 27.5938 96.375 27.3594 96.5781 27.1641C96.7891 26.9609 97.0312 26.8047 97.3047 26.6953C97.5781 26.5781 97.8711 26.5195 98.1836 26.5195H102.309C102.629 26.5195 102.93 26.582 103.211 26.707C103.492 26.8242 103.734 26.9883 103.938 27.1992C104.148 27.4023 104.312 27.6445 104.43 27.9258C104.555 28.207 104.617 28.5078 104.617 28.8281V39ZM119.254 36.6914C119.254 37.0117 119.191 37.3125 119.066 37.5938C118.949 37.875 118.785 38.1211 118.574 38.332C118.371 38.5352 118.129 38.6992 117.848 38.8242C117.574 38.9414 117.277 39 116.957 39H110.758C110.445 39 110.148 38.9414 109.867 38.8242C109.586 38.6992 109.34 38.5352 109.129 38.332C108.926 38.1211 108.762 37.875 108.637 37.5938C108.52 37.3125 108.461 37.0117 108.461 36.6914V28.8281C108.461 28.5078 108.52 28.207 108.637 27.9258C108.762 27.6445 108.926 27.4023 109.129 27.1992C109.34 26.9883 109.586 26.8242 109.867 26.707C110.148 26.582 110.445 26.5195 110.758 26.5195H116.957C117.277 26.5195 117.574 26.582 117.848 26.707C118.129 26.8242 118.371 26.9883 118.574 27.1992C118.785 27.4023 118.949 27.6445 119.066 27.9258C119.191 28.207 119.254 28.5078 119.254 28.8281V36.6914ZM110.758 28.8281V36.6914H116.957V28.8281H110.758ZM125.699 39L121.668 26.5195H124L126.953 35.9297L129.707 26.5195H132.062L134.816 35.9297L137.77 26.5195H140.102L136.07 39H133.668L130.879 29.8359L128.102 39H125.699ZM144.812 28.8281V39H142.516V26.5195H144.812V28.7227C144.828 28.418 144.898 28.1328 145.023 27.8672C145.148 27.5938 145.312 27.3594 145.516 27.1641C145.727 26.9609 145.969 26.8047 146.242 26.6953C146.516 26.5781 146.809 26.5195 147.121 26.5195H149.57C149.891 26.5195 150.188 26.582 150.461 26.707C150.742 26.8242 150.988 26.9883 151.199 27.1992C151.41 27.4023 151.574 27.6445 151.691 27.9258C151.816 28.207 151.879 28.5078 151.879 28.8281V30.9375H149.57V28.8281H144.812ZM165.309 33.9375H157.047V36.6914H165.309V39H157.047C156.734 39 156.438 38.9414 156.156 38.8242C155.875 38.6992 155.629 38.5352 155.418 38.332C155.215 38.1211 155.051 37.875 154.926 37.5938C154.809 37.3125 154.75 37.0117 154.75 36.6914V28.8281C154.75 28.5078 154.809 28.207 154.926 27.9258C155.051 27.6445 155.215 27.4023 155.418 27.1992C155.629 26.9883 155.875 26.8242 156.156 26.707C156.438 26.582 156.734 26.5195 157.047 26.5195H163C163.32 26.5195 163.621 26.582 163.902 26.707C164.184 26.8242 164.426 26.9883 164.629 27.1992C164.84 27.4023 165.004 27.6445 165.121 27.9258C165.246 28.207 165.309 28.5078 165.309 28.8281V33.9375ZM157.047 28.8281V31.6289H163V28.8281H157.047ZM179.723 33.9375H171.461V36.6914H179.723V39H171.461C171.148 39 170.852 38.9414 170.57 38.8242C170.289 38.6992 170.043 38.5352 169.832 38.332C169.629 38.1211 169.465 37.875 169.34 37.5938C169.223 37.3125 169.164 37.0117 169.164 36.6914V28.8281C169.164 28.5078 169.223 28.207 169.34 27.9258C169.465 27.6445 169.629 27.4023 169.832 27.1992C170.043 26.9883 170.289 26.8242 170.57 26.707C170.852 26.582 171.148 26.5195 171.461 26.5195H177.414C177.734 26.5195 178.035 26.582 178.316 26.707C178.598 26.8242 178.84 26.9883 179.043 27.1992C179.254 27.4023 179.418 27.6445 179.535 27.9258C179.66 28.207 179.723 28.5078 179.723 28.8281V33.9375ZM171.461 28.8281V31.6289H177.414V28.8281H171.461ZM185.875 21.7148V39H183.578V21.7148H185.875Z" fill="white"/>
</svg>
