<svg width="98" height="98" viewBox="0 0 98 98" fill="none" xmlns="http://www.w3.org/2000/svg">
<path d="M97.3129 36.2955C96.4775 33.5489 94.8085 31.1529 92.5527 29.4618C90.2969 27.7707 87.5741 26.8743 84.787 26.9053H66.9437L61.5241 9.4578C60.6719 6.71142 58.9972 4.31558 56.7416 2.61576C54.4859 0.915949 51.7659 0 48.9738 0C46.1816 0 43.4616 0.915949 41.206 2.61576C38.9504 4.31558 37.2757 6.71142 36.4234 9.4578L31.0039 26.9053H13.1605C10.3823 26.9094 7.67641 27.8202 5.4293 29.5077C3.18219 31.1951 1.50884 33.5729 0.648246 36.3014C-0.212348 39.0299 -0.216157 41.9695 0.637362 44.7003C1.49088 47.4312 3.15807 49.8136 5.40079 51.5072L19.9238 62.4752L14.4021 80.1378C13.5098 82.8772 13.4985 85.8411 14.3699 88.5877C15.2413 91.3343 16.9487 93.7164 19.2376 95.379C21.4874 97.095 24.2136 98.0143 27.0103 97.9998C29.8069 97.9854 32.5241 97.038 34.7571 95.2989L48.9738 84.4912L63.1945 95.2862C65.4402 96.9924 68.1517 97.9191 70.9394 97.9331C73.7271 97.9471 76.4473 97.0478 78.709 95.3643C80.9706 93.6808 82.6572 91.3 83.5262 88.564C84.3952 85.8281 84.402 82.878 83.5455 80.1378L78.0238 62.4752L92.5631 51.5072C94.8315 49.8348 96.5182 47.4524 97.3736 44.7128C98.2291 41.9731 98.2078 39.0217 97.3129 36.2955ZM87.7439 44.6944L70.8195 57.4721C70.1243 57.9959 69.6071 58.7331 69.3416 59.5785C69.0761 60.4239 69.0759 61.3344 69.341 62.1799L75.7735 82.7237C76.099 83.7657 76.0962 84.8874 75.7655 85.9277C75.4349 86.9679 74.7934 87.8731 73.9333 88.513C73.0732 89.1529 72.0388 89.4946 70.9788 89.4891C69.9188 89.4835 68.8879 89.1308 68.0341 88.4819L51.3915 75.8266C50.6906 75.2947 49.8435 75.0079 48.9738 75.0079C48.104 75.0079 47.257 75.2947 46.556 75.8266L29.9134 88.4819C29.0602 89.1396 28.0263 89.4995 26.9617 89.5095C25.8971 89.5195 24.8571 89.179 23.9924 88.5374C23.1278 87.8957 22.4834 86.9864 22.1528 85.941C21.8222 84.8957 21.8225 83.7688 22.1537 82.7237L28.6065 62.1799C28.8716 61.3344 28.8714 60.4239 28.6059 59.5785C28.3404 58.7331 27.8232 57.9959 27.1281 57.4721L10.2037 44.6944C9.35133 44.0499 8.71802 43.1435 8.39418 42.1049C8.07034 41.0663 8.07255 39.9486 8.40048 38.9114C8.72842 37.8742 9.3653 36.9705 10.2202 36.3295C11.075 35.6885 12.1042 35.3429 13.1605 35.3422H33.9893C34.854 35.3421 35.6963 35.0586 36.395 34.5325C37.0937 34.0064 37.6128 33.2648 37.8773 32.4146L44.2077 12.0353C44.5326 10.9924 45.1695 10.0829 46.0267 9.43776C46.8839 8.79258 47.9172 8.44497 48.9779 8.44497C50.0385 8.44497 51.0718 8.79258 51.929 9.43776C52.7862 10.0829 53.4231 10.9924 53.7481 12.0353L60.0784 32.4146C60.343 33.2648 60.862 34.0064 61.5607 34.5325C62.2594 35.0586 63.1017 35.3421 63.9664 35.3422H84.7952C85.8516 35.3429 86.8807 35.6885 87.7355 36.3295C88.5904 36.9705 89.2273 37.8742 89.5552 38.9114C89.8832 39.9486 89.8854 41.0663 89.5615 42.1049C89.2377 43.1435 88.6044 44.0499 87.7521 44.6944H87.7439Z" fill="white"/>
</svg>
