<svg width="420" height="420" viewBox="0 0 420 420" fill="none" xmlns="http://www.w3.org/2000/svg">
<g opacity="0.5">
<path d="M330.575 64.846L324.62 72.8477C307.431 95.9459 300.953 125.298 306.824 153.485L306.744 153.405L241.961 88.6221L241.936 88.5968C270.123 94.4675 299.475 87.9897 322.573 70.8007L330.575 64.846Z" fill="#F4E9CE"/>
<path d="M330.575 64.846L324.62 72.8477C307.431 95.9459 300.953 125.298 306.824 153.485L306.744 153.405L241.961 88.6221L241.936 88.5968C270.123 94.4675 299.475 87.9897 322.573 70.8007L330.575 64.846Z" fill="#F4E9CE"/>
<path d="M330.575 64.846L324.62 72.8477C307.431 95.9459 300.953 125.298 306.824 153.485L306.744 153.405L241.961 88.6221L241.936 88.5968C270.123 94.4675 299.475 87.9897 322.573 70.8007L330.575 64.846Z" fill="#F4E9CE"/>
<path d="M242.01 395.374L240.854 385.467C237.517 356.868 246.583 328.21 265.761 306.734L265.673 306.758L177.156 330.476L177.122 330.485C204.468 339.495 226.649 359.781 238.058 386.216L242.01 395.374Z" fill="#F4E9CE"/>
<path d="M242.01 395.374L240.854 385.467C237.517 356.868 246.583 328.21 265.761 306.734L265.673 306.758L177.156 330.476L177.122 330.485C204.468 339.495 226.649 359.781 238.058 386.216L242.01 395.374Z" fill="#F4E9CE"/>
<path d="M242.01 395.374L240.854 385.467C237.517 356.868 246.583 328.21 265.761 306.734L265.673 306.758L177.156 330.476L177.122 330.485C204.468 339.495 226.649 359.781 238.058 386.216L242.01 395.374Z" fill="#F4E9CE"/>
<path d="M395.37 177.106L386.212 181.058C359.777 192.467 339.491 214.648 330.481 241.994L330.472 241.959L306.744 153.405L306.73 153.355C328.206 172.533 356.864 181.599 385.462 178.262L395.37 177.106Z" fill="#F4E9CE"/>
<path d="M395.37 177.106L386.212 181.058C359.777 192.467 339.491 214.648 330.481 241.994L330.472 241.959L306.744 153.405L306.73 153.355C328.206 172.533 356.864 181.599 385.462 178.262L395.37 177.106Z" fill="#F4E9CE"/>
<path d="M395.37 177.106L386.212 181.058C359.777 192.467 339.491 214.648 330.481 241.994L330.472 241.959L306.744 153.405L306.73 153.355C328.206 172.533 356.864 181.599 385.462 178.262L395.37 177.106Z" fill="#F4E9CE"/>
<path d="M23.7204 242.009L32.8782 238.056C59.3135 226.647 79.5994 204.466 88.6088 177.12L88.6181 177.155L112.33 265.65L112.36 265.759C90.8842 246.582 62.2256 237.515 33.6275 240.853L23.7204 242.009Z" fill="#F4E9CE"/>
<path d="M23.7204 242.009L32.8782 238.056C59.3135 226.647 79.5994 204.466 88.6088 177.12L88.6181 177.155L112.33 265.65L112.36 265.759C90.8842 246.582 62.2256 237.515 33.6275 240.853L23.7204 242.009Z" fill="#F4E9CE"/>
<path d="M23.7204 242.009L32.8782 238.056C59.3135 226.647 79.5994 204.466 88.6088 177.12L88.6181 177.155L112.33 265.65L112.36 265.759C90.8842 246.582 62.2256 237.515 33.6275 240.853L23.7204 242.009Z" fill="#F4E9CE"/>
<path d="M354.248 330.573L348.293 322.571C331.104 299.473 324.627 270.121 330.497 241.934L330.472 241.959L265.673 306.758L265.609 306.822C293.796 300.952 323.148 307.429 346.246 324.618L354.248 330.573Z" fill="#F4E9CE"/>
<path d="M354.248 330.573L348.293 322.571C331.104 299.473 324.627 270.121 330.497 241.934L330.472 241.959L265.673 306.758L265.609 306.822C293.796 300.952 323.148 307.429 346.246 324.618L354.248 330.573Z" fill="#F4E9CE"/>
<path d="M354.248 330.573L348.293 322.571C331.104 299.473 324.627 270.121 330.497 241.934L330.472 241.959L265.673 306.758L265.609 306.822C293.796 300.952 323.148 307.429 346.246 324.618L354.248 330.573Z" fill="#F4E9CE"/>
<path d="M64.8419 88.541L70.7966 96.5428C87.9857 119.641 94.4635 148.993 88.5928 177.18L88.6181 177.155L153.429 112.344L153.481 112.292C125.294 118.163 95.9418 111.685 72.8437 94.4958L64.8419 88.541Z" fill="#F4E9CE"/>
<path d="M64.8419 88.541L70.7966 96.5428C87.9857 119.641 94.4635 148.993 88.5928 177.18L88.6181 177.155L153.429 112.344L153.481 112.292C125.294 118.163 95.9418 111.685 72.8437 94.4958L64.8419 88.541Z" fill="#F4E9CE"/>
<path d="M64.8419 88.541L70.7966 96.5428C87.9857 119.641 94.4635 148.993 88.5928 177.18L88.6181 177.155L153.429 112.344L153.481 112.292C125.294 118.163 95.9418 111.685 72.8437 94.4958L64.8419 88.541Z" fill="#F4E9CE"/>
<path d="M177.107 23.7244L178.263 33.6315C181.6 62.2296 172.534 90.8881 153.356 112.364L153.429 112.344L241.961 88.6221L241.996 88.6129C214.649 79.6034 192.469 59.3175 181.06 32.8823L177.107 23.7244Z" fill="#F4E9CE"/>
<path d="M177.107 23.7244L178.263 33.6315C181.6 62.2296 172.534 90.8881 153.356 112.364L153.429 112.344L241.961 88.6221L241.996 88.6129C214.649 79.6034 192.469 59.3175 181.06 32.8823L177.107 23.7244Z" fill="#F4E9CE"/>
<path d="M177.107 23.7244L178.263 33.6315C181.6 62.2296 172.534 90.8881 153.356 112.364L153.429 112.344L241.961 88.6221L241.996 88.6129C214.649 79.6034 192.469 59.3175 181.06 32.8823L177.107 23.7244Z" fill="#F4E9CE"/>
<path d="M88.5426 354.252L94.4973 346.25C111.686 323.152 118.164 293.8 112.293 265.613L112.33 265.65L177.156 330.476L177.182 330.501C148.995 324.631 119.643 331.108 96.5443 348.297L88.5426 354.252Z" fill="#F4E9CE"/>
<path d="M88.5426 354.252L94.4973 346.25C111.686 323.152 118.164 293.8 112.293 265.613L112.33 265.65L177.156 330.476L177.182 330.501C148.995 324.631 119.643 331.108 96.5443 348.297L88.5426 354.252Z" fill="#F4E9CE"/>
<path d="M88.5426 354.252L94.4973 346.25C111.686 323.152 118.164 293.8 112.293 265.613L112.33 265.65L177.156 330.476L177.182 330.501C148.995 324.631 119.643 331.108 96.5443 348.297L88.5426 354.252Z" fill="#F4E9CE"/>
<path d="M306.744 153.405L241.961 88.6221L153.429 112.344L88.6181 177.155L112.33 265.65L177.156 330.476L265.673 306.758L330.472 241.959L306.744 153.405Z" fill="#F4E9CE"/>
<path d="M306.744 153.405L241.961 88.6221L153.429 112.344L88.6181 177.155L112.33 265.65L177.156 330.476L265.673 306.758L330.472 241.959L306.744 153.405Z" fill="#F4E9CE"/>
<path d="M306.744 153.405L241.961 88.6221L153.429 112.344L88.6181 177.155L112.33 265.65L177.156 330.476L265.673 306.758L330.472 241.959L306.744 153.405Z" fill="#F4E9CE"/>
</g>
<g opacity="0.5">
<path d="M299.701 101.759L295.266 107.72C282.462 124.926 277.636 146.79 282.01 167.786L281.95 167.727L233.693 119.47L233.674 119.451C254.671 123.824 276.535 118.999 293.741 106.195L299.701 101.759Z" fill="white"/>
<path d="M233.73 347.969L232.869 340.589C230.383 319.286 237.136 297.939 251.422 281.942L251.356 281.959L185.42 299.627L185.394 299.634C205.765 306.345 222.287 321.456 230.786 341.147L233.73 347.969Z" fill="white"/>
<path d="M347.967 185.381L341.145 188.325C321.454 196.824 306.343 213.346 299.632 233.717L299.625 233.691L281.95 167.727L281.94 167.689C297.937 181.975 319.284 188.728 340.587 186.242L347.967 185.381Z" fill="white"/>
<path d="M71.126 233.727L77.9476 230.783C97.6392 222.285 112.75 205.762 119.461 185.392L119.468 185.418L137.131 251.338L137.153 251.419C121.156 237.134 99.8085 230.381 78.5058 232.866L71.126 233.727Z" fill="white"/>
<path d="M317.336 299.699L312.9 293.739C300.096 276.533 295.271 254.669 299.644 233.672L299.625 233.691L251.356 281.959L251.308 282.007C272.305 277.634 294.169 282.459 311.375 295.263L317.336 299.699Z" fill="white"/>
<path d="M101.757 119.41L106.193 125.37C118.997 142.576 123.822 164.44 119.449 185.437L119.468 185.418L167.746 137.141L167.785 137.102C146.788 141.475 124.924 136.649 107.718 123.845L101.757 119.41Z" fill="white"/>
<path d="M185.384 71.1279L186.245 78.5076C188.731 99.8103 181.977 121.158 167.692 137.155L167.746 137.141L233.693 119.47L233.719 119.463C213.349 112.752 196.826 97.6411 188.328 77.9495L185.384 71.1279Z" fill="white"/>
<path d="M119.412 317.337L123.848 311.377C136.652 294.171 141.477 272.307 137.104 251.31L137.131 251.338L185.42 299.627L185.439 299.646C164.443 295.272 142.578 300.098 125.372 312.902L119.412 317.337Z" fill="white"/>
<path d="M281.95 167.727L233.693 119.47L167.746 137.141L119.468 185.418L137.131 251.338L185.42 299.627L251.356 281.959L299.625 233.691L281.95 167.727Z" fill="white"/>
</g>
</svg>
