<svg width="14" height="14" viewBox="0 0 14 14" fill="none" xmlns="http://www.w3.org/2000/svg">
<path d="M0.8125 5.8751C0.663316 5.8751 0.520242 5.81583 0.414753 5.71034C0.309263 5.60485 0.25 5.46178 0.25 5.3126V0.813721C0.25 0.664536 0.309263 0.521462 0.414753 0.415973C0.520242 0.310484 0.663316 0.251221 0.8125 0.251221H5.3125C5.46168 0.251221 5.60476 0.310484 5.71025 0.415973C5.81574 0.521462 5.875 0.664536 5.875 0.813721V5.3126C5.875 5.46178 5.81574 5.60485 5.71025 5.71034C5.60476 5.81583 5.46168 5.8751 5.3125 5.8751H0.8125ZM8.6875 5.8751C8.53832 5.8751 8.39524 5.81583 8.28975 5.71034C8.18426 5.60485 8.125 5.46178 8.125 5.3126V0.813721C8.125 0.664536 8.18426 0.521462 8.28975 0.415973C8.39524 0.310484 8.53832 0.251221 8.6875 0.251221H13.1864C13.3356 0.251221 13.4786 0.310484 13.5841 0.415973C13.6896 0.521462 13.7489 0.664536 13.7489 0.813721V5.3126C13.7489 5.46178 13.6896 5.60485 13.5841 5.71034C13.4786 5.81583 13.3356 5.8751 13.1864 5.8751H8.6875ZM0.8125 13.7501C0.663316 13.7501 0.520242 13.6908 0.414753 13.5853C0.309263 13.4799 0.25 13.3368 0.25 13.1876V8.6876C0.25 8.53841 0.309263 8.39534 0.414753 8.28985C0.520242 8.18436 0.663316 8.1251 0.8125 8.1251H5.3125C5.46168 8.1251 5.60476 8.18436 5.71025 8.28985C5.81574 8.39534 5.875 8.53841 5.875 8.6876V13.1876C5.875 13.3368 5.81574 13.4799 5.71025 13.5853C5.60476 13.6908 5.46168 13.7501 5.3125 13.7501H0.8125ZM8.6875 13.7501C8.53832 13.7501 8.39524 13.6908 8.28975 13.5853C8.18426 13.4799 8.125 13.3368 8.125 13.1876V8.6876C8.125 8.53841 8.18426 8.39534 8.28975 8.28985C8.39524 8.18436 8.53832 8.1251 8.6875 8.1251H13.1864C13.3356 8.1251 13.4786 8.18436 13.5841 8.28985C13.6896 8.39534 13.7489 8.53841 13.7489 8.6876V13.1876C13.7489 13.3368 13.6896 13.4799 13.5841 13.5853C13.4786 13.6908 13.3356 13.7501 13.1864 13.7501H8.6875Z" fill="#DD0802"/>
</svg>
