<svg width="18" height="15" viewBox="0 0 18 15" fill="none" xmlns="http://www.w3.org/2000/svg">
<path d="M3.16667 1.33337H6.5L9 3.83337H14.8333C15.2754 3.83337 15.6993 4.00897 16.0118 4.32153C16.3244 4.63409 16.5 5.05801 16.5 5.50004V12.1667C16.5 12.6087 16.3244 13.0327 16.0118 13.3452C15.6993 13.6578 15.2754 13.8334 14.8333 13.8334H3.16667C2.72464 13.8334 2.30072 13.6578 1.98816 13.3452C1.67559 13.0327 1.5 12.6087 1.5 12.1667V3.00004C1.5 2.55801 1.67559 2.13409 1.98816 1.82153C2.30072 1.50897 2.72464 1.33337 3.16667 1.33337" stroke="#64748B" stroke-width="1.5" stroke-linecap="round" stroke-linejoin="round"/>
<path d="M9 6.33337V11.3334" stroke="#64748B" stroke-width="1.5" stroke-linecap="round" stroke-linejoin="round"/>
<path d="M6.5 8.83337H11.5" stroke="#64748B" stroke-width="1.5" stroke-linecap="round" stroke-linejoin="round"/>
</svg>
