<svg width="24" height="24" viewBox="0 0 24 24" fill="none" xmlns="http://www.w3.org/2000/svg">
<path d="M23.1597 2.77326H8.68766C8.46487 2.77326 8.25122 2.68476 8.09369 2.52723C7.93616 2.3697 7.84766 2.15604 7.84766 1.93326C7.84766 1.71048 7.93616 1.49682 8.09369 1.33929C8.25122 1.18176 8.46487 1.09326 8.68766 1.09326H23.1597C23.3824 1.09326 23.5961 1.18176 23.7536 1.33929C23.9112 1.49682 23.9997 1.71048 23.9997 1.93326C23.9997 2.15604 23.9112 2.3697 23.7536 2.52723C23.5961 2.68476 23.3824 2.77326 23.1597 2.77326Z" fill="white"/>
<path d="M4.32 2.77326H0.84C0.617218 2.77326 0.403561 2.68476 0.24603 2.52723C0.0884998 2.3697 0 2.15604 0 1.93326C0 1.71048 0.0884998 1.49682 0.24603 1.33929C0.403561 1.18176 0.617218 1.09326 0.84 1.09326H4.32C4.54278 1.09326 4.75644 1.18176 4.91397 1.33929C5.0715 1.49682 5.16 1.71048 5.16 1.93326C5.16 2.15604 5.0715 2.3697 4.91397 2.52723C4.75644 2.68476 4.54278 2.77326 4.32 2.77326Z" fill="white"/>
<path d="M23.1597 12.8402H8.68766C8.46487 12.8402 8.25122 12.7517 8.09369 12.5941C7.93616 12.4366 7.84766 12.2229 7.84766 12.0002C7.84766 11.7774 7.93616 11.5637 8.09369 11.4062C8.25122 11.2487 8.46487 11.1602 8.68766 11.1602H23.1597C23.3824 11.1602 23.5961 11.2487 23.7536 11.4062C23.9112 11.5637 23.9997 11.7774 23.9997 12.0002C23.9997 12.2229 23.9112 12.4366 23.7536 12.5941C23.5961 12.7517 23.3824 12.8402 23.1597 12.8402Z" fill="white"/>
<path d="M4.32 12.8402H0.84C0.617218 12.8402 0.403561 12.7517 0.24603 12.5941C0.0884997 12.4366 0 12.2229 0 12.0002C0 11.7774 0.0884997 11.5637 0.24603 11.4062C0.403561 11.2487 0.617218 11.1602 0.84 11.1602H4.32C4.54278 11.1602 4.75644 11.2487 4.91397 11.4062C5.0715 11.5637 5.16 11.7774 5.16 12.0002C5.16 12.2229 5.0715 12.4366 4.91397 12.5941C4.75644 12.7517 4.54278 12.8402 4.32 12.8402Z" fill="white"/>
<path d="M23.1597 22.9066H8.68766C8.46487 22.9066 8.25122 22.8181 8.09369 22.6605C7.93616 22.503 7.84766 22.2893 7.84766 22.0666C7.84766 21.8438 7.93616 21.6301 8.09369 21.4726C8.25122 21.3151 8.46487 21.2266 8.68766 21.2266H23.1597C23.3824 21.2266 23.5961 21.3151 23.7536 21.4726C23.9112 21.6301 23.9997 21.8438 23.9997 22.0666C23.9997 22.2893 23.9112 22.503 23.7536 22.6605C23.5961 22.8181 23.3824 22.9066 23.1597 22.9066Z" fill="white"/>
<path d="M4.32 22.9066H0.84C0.617218 22.9066 0.403561 22.8181 0.24603 22.6605C0.0884997 22.503 0 22.2893 0 22.0666C0 21.8438 0.0884997 21.6301 0.24603 21.4726C0.403561 21.3151 0.617218 21.2266 0.84 21.2266H4.32C4.54278 21.2266 4.75644 21.3151 4.91397 21.4726C5.0715 21.6301 5.16 21.8438 5.16 22.0666C5.16 22.2893 5.0715 22.503 4.91397 22.6605C4.75644 22.8181 4.54278 22.9066 4.32 22.9066Z" fill="white"/>
</svg>
