<svg width="31" height="40" viewBox="0 0 31 40" fill="none" xmlns="http://www.w3.org/2000/svg">
<path d="M26.1923 21.6555H19.093V39.9997H21.853V26.4926H26.1923V21.6555Z" fill="#2784F7"/>
<path d="M21.9153 -1.90735e-06L9.92141 5.33588L9.92631 11.0584H15.3304V39.9998H17.594V20.0772H21.9153V-1.90735e-06Z" fill="#2784F7"/>
<path d="M0 40V21.5687H7.18752V40H0Z" fill="#97DDFD"/>
<rect x="1.58734" y="23.4858" width="1.49924" height="1.48148" fill="white"/>
<rect x="4.49762" y="28.1482" width="1.49924" height="1.48148" fill="white"/>
<rect x="2.11661" y="30.8933" width="1.49924" height="1.48148" fill="white"/>
<rect x="0.83786" y="35.9909" width="1.49924" height="1.48148" fill="white"/>
<path d="M23.3262 27.8428H30.6019V39.9996H23.3262V27.8428Z" fill="#4EACF9"/>
<rect x="27.78" y="30.2833" width="1.41105" height="1.35076" fill="white"/>
<rect x="20.8568" y="23.1805" width="1.41105" height="1.39433" fill="white"/>
<rect x="24.7814" y="34.6401" width="1.36695" height="1.35076" fill="white"/>
<rect x="27.6478" y="36.9932" width="1.36695" height="1.35076" fill="white"/>
<path d="M4.49762 20.1118V12.6362H13.8017V39.9999H8.70009V20.1118H4.49762Z" fill="#48C0FB"/>
<rect x="7.49634" y="15.8167" width="1.41105" height="1.35076" fill="white"/>
<rect x="12.9197" y="7.75596" width="1.41105" height="1.35076" fill="white"/>
<rect x="18.52" y="11.0676" width="1.36695" height="1.39433" fill="white"/>
<rect x="10.5387" y="19.7821" width="1.41105" height="1.39433" fill="white"/>
<rect x="10.583" y="30.1959" width="1.36695" height="1.35076" fill="white"/>
</svg>
